<?xml version="1.0" standalone="no"?> <!DOCTYPE svg PUBLIC "-//W3C//DTD SVG 1.0//EN" "http://www.w3.org/TR/2001/REC-SVG-20010904/DTD/svg10.dtd" > <svg xmlns="http://www.w3.org/2000/svg" width="100%" height="100%">
<defs >
<font id="ahmoharrambold" horiz-adv-x="772" ><font-face
    font-family="Ah-moharram-bold"
    units-per-em="2048"
    panose-1="2 0 0 0 0 0 0 0 0 0"
    ascent="2263"
    descent="-863"
    alphabetic="0" />
<missing-glyph horiz-adv-x="922" d="M235 139H729V1311H235V139ZM96 0V1450H868V0H96Z" />
<glyph unicode=" " glyph-name="space" horiz-adv-x="87" />
<glyph unicode="!" glyph-name="exclam" horiz-adv-x="305" d="M229 62Q229 -18 154 -18Q76 -18 76 60Q76 97 95 117T154 138Q192 138 210 118T229 62ZM204 243H99V266Q99 268 99 270T98 274V409Q98 415 98 421T97 435V458Q97 464 97 470T96 484Q96 498 96 509T95
530Q94 546 94 561T94 594Q94 610 94 626T93 657Q93 662 93 668T92 679V701Q90 807 89 905Q88 913 88 925T88 948Q88 954 88 960T87 973V994Q87 999 87 1003T86 1013V1068Q86 1085 86 1106T85 1150Q85 1153 85 1155T84 1161V1233Q84 1234 84 1234T83 1236V1292Q83
1299 83 1309T83 1329T83 1349T82 1365H226L204 243Z" />
<glyph unicode="&quot;" glyph-name="quotedbl" horiz-adv-x="552" d="M232 1207Q232 1175 227 1130T214 1025Q206 965 201 910T196 789H104Q104 849 98 910T82 1025Q73 1076 68 1126T62 1207Q62 1245 84 1266T149 1288Q186 1288 209 1264T232 1207ZM491 1207Q491
1176 485 1127T468 1025Q459 973 453 911T446 789H354Q354 849 349 910T337 1025Q329 1076 324 1126T319 1207Q319 1245 339 1266T401 1288Q417 1288 433 1281T462 1263T483 1238T491 1207Z" />
<glyph unicode="#" glyph-name="numbersign" horiz-adv-x="1365" d="M933 961H507Q505 950 503 941T498 923Q496 912 494 902T490 880Q488 872 487 863T484 846Q478 815 472 785T460 724Q458 715 457 707T453 689L447 662Q444 648 442 636T436 609Q435 604 435
601T432 593H860L933 961ZM1276 473H947Q946 471 946 469T946 465Q944 457 944 453Q943 451 943 448T942 443Q940 437 940 436Q939 434 939 430Q939 428 939 427T938 424Q936 420 936 417Q935 415 935 411Q935 410 935 408T934 404Q932 400 932 395T930 385Q927
380 927 375T926 363Q926 362 926 362T925 360Q923 356 923 355T922 351Q922 350 922 348T921 343Q919 337 918 331T916 319Q916 318 916 317T915 314Q914 311 914 310T914 307Q912 302 912 301T911 294Q909 288 909 287Q907 281 907 276T905 264Q904 258 904 252T902
241Q902 239 902 238T901 235L900 234V229Q899 227 899 225Q899 224 899 224T898 221L897 217L896 215Q895 213 895 210T895 205Q895 203 894 200Q892 194 892 189L891 187Q891 186 891 185T890 181Q890 176 889 173Q889 171 889 170T888 168L886 162Q886 161 886
160T885 158Q885 157 885 156T884 153Q882 148 882 143T880 132Q878 124 876 117T872 101Q871 96 870 90T860 69H745L831 473H405Q398 440 392 405T377 340L374 328Q373 325 373 322T372 316L360 259Q358 251 357 242T353 224Q351 216 350 208T346 191Q344 183
343 175T340 159Q336 137 332 112T323 69H205L291 473H88V591H317Q319 599 320 605T323 619Q333 676 343 732T367 844Q369 855 371 866T376 888Q378 897 379 905T383 923Q385 929 386 934T388 946Q389 951 389 953T390 961H88V1077H417Q417 1079 417 1081T418 1085Q418
1088 419 1090V1088Q419 1089 419 1090T420 1093L421 1098L430 1137Q431 1143 432 1149T435 1162Q435 1163 435 1163T436 1165Q436 1171 437 1174V1173Q438 1176 438 1179T440 1186V1185Q440 1186 440 1186T441 1188Q441 1190 441 1192T443 1198H442Q442 1201 444
1205Q444 1206 444 1207T445 1209L451 1231Q453 1243 455 1254T460 1277Q463 1296 465 1314T472 1350Q475 1362 478 1377T486 1408Q489 1422 494 1441Q494 1442 494 1443T495 1446Q496 1449 496 1453T498 1461Q499 1463 499 1464T501 1469Q502 1474 503 1478T505
1486H622L535 1077H958Q958 1081 959 1083Q959 1085 959 1085T960 1088L963 1106Q965 1117 967 1128T972 1150L984 1210L987 1221Q988 1224 988 1226T989 1232Q991 1242 993 1251T997 1271Q998 1276 999 1281T1001 1292Q1002 1297 1002 1302T1005 1313Q1012 1350
1020 1382Q1022 1391 1024 1401T1028 1425Q1028 1426 1028 1427T1029 1430Q1030 1435 1031 1439T1034 1449L1033 1448Q1034 1453 1035 1458T1037 1469V1475Q1037 1477 1037 1481T1038 1486H1159L1072 1077H1276V961H1047Q1038 911 1030 866T1012 776T994 686T974
591H1276V473Z" />
<glyph unicode="$" glyph-name="dollar" horiz-adv-x="939" d="M468 1353Q434 1348 406 1336T353 1302Q325 1278 313 1248T301 1182Q301 1060 468 944V1353ZM714 400Q714 471 675 531T554 645V194Q634 220 674 272T714 400ZM883 505Q883 440 856 378T778 261Q736
223 679 184T554 113V-54H468V100Q462 100 458 100T447 99Q445 99 443 99T438 98H415Q388 97 352 102T275 117T193 140T114 168V527H189Q212 371 278 283T468 181V704Q464 706 462 708T455 713Q443 721 431 730T410 746Q358 778 318 806T259 852Q203 905 172 964T140
1080Q140 1203 250 1310Q292 1349 346 1377T468 1424V1589H554V1436H583Q625 1436 688 1422T821 1385V1065H741Q709 1302 554 1351Q554 1233 554 1118T555 884Q565 879 565 877Q585 861 611 842T659 808Q684 791 709 774T755 741T792 711T817 688Q849 650 866 603T883
505Z" />
<glyph unicode="%" glyph-name="percent" horiz-adv-x="946" d="M328 1271Q328 1244 317 1221T289 1181Q273 1166 252 1156T209 1146Q154 1146 119 1181Q88 1216 88 1271Q88 1297 96 1318T118 1357Q157 1390 209 1390Q234 1390 253 1381T288 1360Q306 1343 317
1319T328 1271ZM861 250Q861 203 822 152Q796 126 745 126Q693 126 658 164Q640 184 631 205T621 250Q621 276 631 298T657 337Q691 371 745 371Q795 371 829 339Q844 322 852 300T861 250ZM780 1418Q775 1406 768 1387T754 1354Q750 1345 746 1335T739 1317L733
1302Q726 1285 720 1269T707 1236Q707 1235 707 1234T706 1231Q704 1224 697 1209Q652 1097 607 981T521 751L482 649Q465 609 449 567T417 483Q394 420 370 359T319 236Q317 231 315 226T310 215V213Q310 212 309 211T307 206Q307 205 307 205T306 204V202Q305
200 304 198T303 194H304Q302 189 301 186T298 178Q296 174 295 170T292 162Q289 154 286 146T280 130Q277 122 273 110T266 90H171Q194 154 221 221T272 350Q277 361 280 371T289 392L291 398L295 404V408L301 406Q299 408 299 413T306 433Q306 435 306 436T308
441Q314 458 322 478L336 512Q338 517 339 521T343 530Q344 532 344 534T346 538V536Q346 537 346 537T347 539L348 541Q350 544 350 547T352 555Q354 561 357 569T363 583Q365 586 366 589T369 596H368L371 605Q373 610 375 614T381 625L383 629V631Q383 637 389
645Q389 648 390 650Q390 653 393 656V658L398 679Q398 680 405 697H404Q409 711 412 719T421 742Q422 745 424 749Q426 752 426 755T428 760Q429 762 430 764T432 769L438 784Q440 789 442 793T446 801V803Q447 805 449 809T452 816L451 815Q453 820 455 826T459
838V837Q459 838 459 838T460 840Q460 841 460 843T461 846Q462 848 462 849T463 851T465 856T469 866L477 882Q476 881 476 881T479 889Q481 893 482 897T485 905Q486 907 485 905T483 903Q483 903 485 908T497 931H496Q505 954 514 977T531 1024Q549 1073 568
1125T608 1228T646 1328T682 1418H780Z" />
<glyph unicode="&amp;" glyph-name="ampersand" horiz-adv-x="1301" d="M757 1258Q757 1312 721 1340T630 1369Q599 1369 571 1358T519 1326Q479 1277 479 1209Q479 1166 497 1108T557 972L575 990Q588 1003 600 1014T624 1037L636 1049Q638 1051 640 1053T645
1057Q660 1071 671 1081T685 1095Q717 1136 737 1179T757 1258ZM428 787Q355 705 315 625T274 472Q274 433 286 395T315 330Q337 299 369 280T441 261Q465 261 493 272T551 304T612 354T673 418L428 787ZM1324 419Q1236 263 1168 180T1048 97Q992 97 907 166T709
368Q706 363 703 360T696 353Q654 301 617 258T556 197Q504 150 448 124T339 97Q285 97 234 123T145 192Q107 230 88 280T69 386Q69 582 402 840Q346 947 321 1023T295 1157Q295 1219 334 1276T441 1369Q469 1383 502 1395T571 1417T640 1431T705 1437Q751 1437
788 1427T860 1395Q898 1369 916 1338T935 1262Q935 1222 913 1179T851 1098Q844 1092 829 1082T795 1059T753 1031T706 1000Q704 999 702 998T701 997Q699 995 696 993T690 990H691L676 981Q659 971 643 960T613 939Q608 935 601 931T588 923Q654 813 704 732T787
601Q835 673 863 752T905 931H1271V863Q1144 858 1036 781T827 545Q927 410 996 347T1112 284Q1141 284 1178 324T1270 443L1324 419Z" />
<glyph unicode="&apos;" glyph-name="quotesingle" horiz-adv-x="320" d="M271 1338Q271 1312 269 1282T261 1216Q257 1207 257 1205T258 1199Q258 1197 257 1192T256 1182Q255 1180 255 1176Q254 1173 254 1168Q254 1167 254 1165T253 1161Q251 1155 251 1152Q250
1149 250 1145Q249 1140 249 1136T247 1128Q246 1123 245 1114T243 1096Q240 1087 240 1088L239 1085Q239 1084 239 1084T238 1081V1075Q237 1073 237 1069T235 1059Q234 1057 234 1056T233 1051Q233 1050 233 1049T232 1047Q232 1046 232 1045T231 1041Q229 1033
229 1032Q229 1031 229 1031T228 1028V1024Q228 1016 227 1013V1014Q226 1013 226 1009Q226 1006 226 1004T223 997L224 998Q223 995 223 990Q222 988 222 987V986Q222 984 222 982T221 977Q220 972 220 969T218 960Q218 959 218 958T217 955L215 947Q215 945 215
944T214 942Q214 941 214 941T213 939Q212 937 212 931Q211 930 211 929V924Q210 922 210 918T209 901H158Q156 911 153 925T148 951Q148 953 148 955T147 959L146 965Q144 969 144 973Q144 974 144 974T143 978Q141 984 141 990T139 1004Q139 1006 139 1008T138
1012Q138 1014 138 1016T135 1023V1029L129 1068Q129 1074 128 1075Q128 1076 128 1076T127 1078Q126 1081 126 1085Q126 1087 126 1088T125 1092Q123 1098 123 1106T121 1122V1121Q120 1128 119 1134T117 1148Q114 1167 112 1186T107 1221Q102 1263 100 1292T97
1338Q97 1386 118 1411T186 1437Q230 1437 250 1412T271 1338Z" />
<glyph unicode="(" glyph-name="parenleft" horiz-adv-x="611" d="M488 -110Q487 -110 487 -110T486 -111Q487 -110 487 -110H488ZM493 -108Q494 -108 494 -108T495 -107V-108H493ZM500 -106Q501 -106 495 -108Q497 -106 500 -106ZM493 -108Q491 -112 488 -110Q489
-110 493 -108ZM257 448Q257 288 329 156T545 -89Q525 -99 511 -102T489 -106Q487 -107 487 -107T486 -109L485 -110L488 -109Q487 -109 487 -110H485L486 -111Q484 -114 480 -116T471 -115H469Q468 -115 468 -115T466 -116L463 -118H465Q452 -123 443 -123Q439
-125 438 -125Q435 -126 431 -126T425 -128L413 -131L410 -122Q408 -122 407 -122T402 -123Q402 -126 402 -129T401 -135Q399 -136 396 -136Q395 -136 395 -137Q391 -141 387 -139L386 -141Q384 -144 380 -150Q311 -89 256 -19T161 127T100 285T78 448Q78 522 99
595T158 738T251 872T372 993Q386 988 401 983T429 973Q430 973 431 973T434 972L467 963Q472 961 480 959T495 955L515 950H559Q409 828 333 705T257 448Z" />
<glyph unicode=")" glyph-name="parenright" horiz-adv-x="501" d="M219 994Q285 937 339 873T432 738T492 595T514 448Q514 367 493 287T432 130T339 -15T221 -145Q217 -145 214 -144Q212 -143 210 -143T209 -143Q207 -141 205 -140H204Q199 -140 198 -139T195
-136H192Q175 -133 165 -129Q163 -128 155 -126T140 -122Q136 -121 133 -120T125 -118Q124 -118 123 -117Q124 -118 119 -117T110 -114Q110 -113 110 -113Q109 -113 109 -113T107 -112Q97 -112 89 -107Q86 -106 78 -103T52 -86Q195 25 265 156T335 448Q335 579
262 701T45 938L219 994Z" />
<glyph unicode="*" glyph-name="asterisk" horiz-adv-x="1335" d="M88 391Q88 390 88 390T87 392Q87 391 88 391ZM563 -76Q561 -72 559 -72Q561 -72 563 -76ZM1265 403Q1238 381 1205 354T1149 305H1150Q1144 299 1137 293T1124 281Q1122 279 1122 279T1121 279L1103
261Q1102 260 1102 260T1101 260Q1099 258 1096 255T1089 249Q1090 250 1086 247T1076 239H1077L1074 236Q1073 235 1073 235T1071 234Q1070 233 1065 230T1055 221H1056Q1055 220 1055 220T1049 217H1050Q1044 214 1033 203L987 155Q984 158 979 164T967 176T955
189T946 199Q941 204 935 208T924 217L903 238L870 275V274L855 289Q853 293 850 296T838 309V308L828 318Q823 323 818 329T806 341Q788 355 766 376T730 412Q741 424 757 439T790 471T825 504T858 535Q872 551 890 569T927 606T962 641T991 667L1265 403ZM603
412Q587 395 567 376T529 344Q523 339 518 334T503 318L499 314Q488 303 476 291T451 265Q446 259 440 252T428 239L388 201Q377 190 364 177T342 155L310 189V188Q310 188 308 192Q307 194 306 195V194Q303 198 301 200T296 207Q292 209 289 212T281 217Q277 220
273 221Q256 238 241 253T206 287Q192 299 177 313T152 339V338L140 350Q134 356 129 357L123 362H124Q122 364 120 365T116 369Q110 373 108 375Q106 377 104 378L96 386H97Q95 387 93 388T88 391Q88 392 88 392T87 393H85L68 414L91 437Q94 440 99 444T112 454Q117
458 122 463T135 474H134L153 493Q153 494 154 494Q156 494 158 495Q169 507 180 515H179L199 535Q226 562 260 593T323 649H322L340 667L603 412ZM920 733L883 691L878 684L875 681L842 649Q809 619 773 582T705 511Q696 503 686 493T668 474L579 563Q571 571
563 580T545 597L529 614H530Q523 620 516 626T503 639L468 671L413 731L457 785Q483 808 507 834T556 886Q568 900 580 914T604 940L631 970Q634 975 637 979T643 985V984Q653 996 658 1001T668 1012L920 733ZM929 87Q915 75 899 60T877 34Q872 28 867 23T856
11Q851 5 846 -1T835 -13V-12Q831 -17 827 -22T817 -32Q811 -38 806 -43T796 -54Q780 -68 763 -86T732 -123L712 -147Q710 -149 709 -151T705 -155Q703 -157 702 -159T698 -164Q692 -170 685 -178T673 -193Q671 -195 670 -196T668 -199L641 -166Q624 -146 605 -124T572
-85V-86L564 -78L572 -71Q543 -42 541 -42T559 -72Q558 -70 554 -68Q549 -63 544 -57T531 -42Q528 -39 525 -36T516 -28Q514 -26 515 -26T514 -25L507 -15L508 -17Q503 -14 500 -11T495 -4V-5Q493 -3 491 0T486 5H487Q482 8 480 10T477 13L476 14Q476 14 472 20V19Q471
20 471 20T470 22Q465 28 460 35T450 48Q448 50 448 51T439 61L438 62Q436 63 435 68V66Q433 68 433 69T431 72H432Q423 74 417 94Q436 114 469 147T538 217T609 290T668 351L929 87Z" />
<glyph unicode="+" glyph-name="plus" horiz-adv-x="946" d="M837 447H521V126H423V447H103V541H423V867H521V541H837V447Z" />
<glyph unicode="," glyph-name="comma" horiz-adv-x="415" d="M305 212Q305 175 291 134T251 54Q231 26 198 -5T121 -71Q120 -13 113 22T93 78L118 88H120Q122 95 130 96Q157 115 163 141Q136 153 126 173T115 225Q115 267 140 294T206 321Q254 321 279 291T305 212Z" />
<glyph unicode="-" glyph-name="hyphenminus" horiz-adv-x="448" d="M400 600H50V691H400V600Z" />
<glyph unicode="." glyph-name="period" horiz-adv-x="337" d="M248 62Q248 28 226 5T170 -18Q135 -18 113 5T90 62Q90 98 110 118T170 138Q209 138 228 118T248 62Z" />
<glyph unicode="/" glyph-name="slash" horiz-adv-x="811" d="M95 0H-18Q2 36 25 80T67 161Q71 169 76 179T85 196Q93 210 101 226T118 256Q126 271 134 286T150 316Q152 320 154 323T158 331V330Q164 341 170 352T181 371V370Q184 376 188 385T199 406Q202 411
205 416T210 426Q226 455 241 483T273 541Q275 546 278 550T283 560Q295 582 306 603T328 645Q328 647 330 651Q331 653 332 654V653L334 659Q337 665 340 673T346 686L349 689Q351 691 352 694T356 701V700Q358 705 360 707T363 712Q401 781 439 852T514 996Q514
997 515 999T516 1002Q519 1008 523 1015T529 1026V1025Q537 1039 545 1053T561 1081V1080L573 1101Q587 1124 602 1154T628 1210Q638 1226 646 1240T662 1270Q667 1278 671 1287T680 1305Q690 1324 699 1342T713 1365H831L95 0Z" />
<glyph unicode="0" glyph-name="zero" horiz-adv-x="1456" d="M1320 682Q1320 803 1275 906T1141 1095Q1053 1183 950 1228T727 1273Q604 1273 502 1228T312 1095Q138 927 138 682Q138 559 183 458T316 269Q488 94 729 94Q854 94 955 136T1142 266Q1229 354 1274
455T1320 682ZM1430 682Q1430 386 1227 186Q1125 83 1003 33T729 -18Q577 -18 456 33T229 189Q126 291 77 413T27 682Q27 828 76 952T229 1178H228Q333 1282 455 1331T727 1381Q879 1381 1001 1333T1228 1180Q1331 1077 1380 953T1430 682Z" />
<glyph unicode="1" glyph-name="one" horiz-adv-x="414" d="M265 1366Q275 1369 286 1373T307 1382V0H196L193 1222Q191 1221 189 1221T184 1221Q182 1219 177 1218T170 1214Q163 1212 155 1210T138 1205Q135 1204 132 1204T124 1202L125 1203L114 1197Q113 1196
113 1196T111 1195Q110 1194 109 1194Q101 1192 76 1192V1304Q87 1306 105 1312T142 1328L196 1346H197Q197 1346 201 1348L247 1361H256Q258 1361 259 1362Q261 1362 262 1363T265 1365V1366Z" />
<glyph unicode="2" glyph-name="two" horiz-adv-x="837" d="M797 0H53L620 859V858Q640 896 652 934T665 1016Q665 1066 645 1108T589 1191Q546 1230 504 1250T408 1271Q361 1271 312 1247T221 1190Q189 1152 167 1106T144 1014Q144 963 164 918T219 831Q261 799
310 777T410 755Q423 755 446 757T517 769Q506 755 501 747T492 734T488 726T484 718Q480 713 477 707T469 695Q465 690 462 685T457 676L451 667V668Q450 666 450 666T448 663Q445 657 443 656Q441 654 441 652T439 648L437 644H406Q405 644 405 644T403 643H395L391
642Q317 642 251 670T134 754Q80 808 57 874T33 1016Q33 1085 60 1152T137 1273Q188 1324 258 1352T403 1381Q482 1381 549 1357T670 1277Q723 1223 750 1158T777 1014Q777 990 770 960T751 896T721 828T684 762L260 111H797V0Z" />
<glyph unicode="3" glyph-name="three" horiz-adv-x="755" d="M4 141Q67 117 112 107T199 96Q281 96 357 129T493 222Q553 281 585 353T618 507Q618 595 586 666T492 800Q432 866 362 895T210 925H195Q191 925 186 925T173 925T152 923T118 920L347 1252H71V1365H565L324
1023Q417 994 492 948T619 834Q673 767 701 685T729 511Q729 402 689 306T574 132Q498 60 405 21T204 -18Q153 -18 97 -6T-32 34L4 141Z" />
<glyph unicode="4" glyph-name="four" horiz-adv-x="702" d="M434 441V904Q434 916 434 931T436 963Q434 961 433 958T430 952Q420 935 412 918T393 882Q385 866 375 848T355 812Q341 786 327 760T299 708Q291 694 283 677T267 646Q239 594 212 545T156 441H434ZM556
0H434V332H-21Q45 454 113 581T252 836T391 1093T528 1344L556 1342V441H703V332H556V0Z" />
<glyph unicode="5" glyph-name="five" horiz-adv-x="710" d="M13 124Q61 109 97 103T162 96Q242 96 312 125T445 221Q511 282 542 352T573 504Q573 589 541 662T446 796Q386 861 314 892T156 924Q145 924 134 924T110 923T80 919T39 911Q40 918 41 929T44 952T47
975T50 993Q50 995 50 998T51 1003Q51 1007 53 1013Q54 1018 54 1024T56 1036Q57 1039 57 1043Q57 1045 57 1048T58 1054L61 1074Q61 1075 61 1076T62 1079Q62 1086 63 1089V1088Q65 1096 65 1101Q67 1119 69 1136T75 1172Q75 1176 75 1180T77 1187Q78 1190 78
1193V1197Q78 1198 78 1199T79 1202Q79 1204 79 1207T80 1213Q80 1216 80 1218T82 1222V1221Q82 1223 82 1224T83 1227Q83 1236 85 1244Q85 1246 85 1247T86 1250Q86 1257 87 1260Q88 1267 88 1273T90 1285L93 1308Q94 1311 94 1315Q94 1317 94 1319T95 1323Q95
1325 95 1326T96 1329Q97 1337 98 1349T100 1365H519V1257H206Q201 1228 197 1200T188 1144Q187 1137 186 1131T184 1117Q183 1109 183 1102T180 1088Q179 1083 179 1079T177 1072Q175 1063 174 1056T171 1037Q290 1028 381 987T544 877Q616 804 651 710T687 507Q687
290 534 133Q453 57 362 20T164 -18Q126 -18 81 -11T-28 20L13 124Z" />
<glyph unicode="6" glyph-name="six" horiz-adv-x="1105" d="M965 504Q965 585 934 654T843 783Q783 844 711 876T561 909Q479 909 407 877T273 783Q214 723 185 655T155 502Q155 421 187 350T276 218Q335 155 406 126T561 96Q640 96 713 129T845 219V218Q902
279 933 350T965 504ZM657 1330L412 995Q461 1009 495 1015T563 1021Q782 1021 930 870H929Q1007 795 1042 704T1078 504Q1078 396 1040 301T926 130Q853 58 760 20T559 -18Q450 -18 357 19T190 129Q117 204 80 298T42 499Q42 545 50 591T73 680Q79 696 93 721T126
776T166 839T209 904Q212 907 214 911Q216 913 217 915Q222 923 227 928T238 940Q252 959 266 978T294 1018Q317 1049 339 1079T381 1139V1138Q383 1143 383 1143T385 1145V1143Q386 1145 388 1147T391 1152L395 1158L407 1174Q408 1175 409 1177Q410 1178 410
1179T411 1181Q413 1183 414 1184T417 1189V1188Q418 1190 419 1190T421 1193L425 1201V1200Q432 1208 438 1216T452 1235Q454 1237 455 1239L459 1243Q460 1244 460 1244T461 1246V1244Q462 1246 463 1247T465 1250Q467 1254 469 1259T474 1266Q476 1270 479 1274T484
1282V1281Q488 1289 488 1290V1288Q488 1289 491 1294Q494 1298 496 1301T501 1309Q515 1329 532 1351T564 1392L657 1330Z" />
<glyph unicode="7" glyph-name="seven" horiz-adv-x="557" d="M154 -17Q137 -6 134 -5T130 -3L127 -2H123Q118 0 117 0T113 1L110 2H99Q94 3 90 5Q80 9 81 9L74 12Q73 12 72 12T69 13H44L418 1254H15V1365H572L154 -17Z" />
<glyph unicode="8" glyph-name="eight" horiz-adv-x="1040" d="M684 1111Q684 1139 667 1172T629 1230Q606 1251 578 1266T520 1281Q488 1281 460 1267T406 1228H407Q383 1205 367 1174T350 1113Q350 1082 363 1052T401 999Q424 974 452 963T516 952Q543 952 574
968T631 1004Q651 1027 667 1056T684 1111ZM893 472Q893 544 866 606T780 726Q725 781 660 809T522 838Q447 838 381 810T259 727Q147 616 147 472Q147 391 174 327T257 209Q311 149 377 123T518 96Q594 96 661 124T782 209Q893 317 893 472ZM793 1111Q792 1054
770 1005T706 915Q860 845 934 737T1009 470Q1009 367 973 280T867 120Q721 -18 518 -18Q412 -18 325 16T169 120Q32 265 32 474Q32 623 111 731T335 913Q290 953 266 1004T241 1111Q241 1168 262 1219T319 1309Q361 1346 412 1363T518 1381Q575 1381 623 1363T714
1306Q752 1265 772 1217T793 1111Z" />
<glyph unicode="9" glyph-name="nine" horiz-adv-x="1105" d="M141 863Q141 788 175 715T260 586Q320 532 395 498T545 464Q621 464 696 497T831 585Q857 613 879 646T917 716T942 791T951 868Q951 947 918 1020T831 1152Q771 1206 697 1240T547 1275Q466 1275
393 1243T261 1153V1154Q205 1093 173 1021T141 863ZM451 44L694 376Q645 362 610 357T543 352Q434 352 342 389T176 498Q103 575 66 667T28 865Q28 971 67 1064T176 1232Q251 1308 347 1348T547 1389Q656 1389 748 1352T915 1236Q992 1161 1028 1071T1064 872Q1064
824 1056 779T1033 690Q1025 673 1011 648T979 594T941 533T901 473Q888 456 875 438T848 400Q847 398 846 396T843 392Q841 388 840 387T837 384Q835 380 832 376T827 369Q826 368 826 368T825 366L823 364Q822 363 822 362T820 360V361Q801 337 781 308T743 253Q742
252 743 252T743 252Q734 243 732 239Q730 237 729 235T726 231Q710 211 694 191T664 150Q662 148 661 146T658 142Q656 140 654 137T650 131L648 129Q646 127 646 125Q644 123 642 119T637 113Q636 112 636 112T636 111L635 110Q630 104 626 98T618 86Q614 81
610 75T604 67V65L593 51V52Q591 50 591 49T590 46L589 45V47L586 41V42L580 33Q573 25 566 14Q556 4 551 -4T541 -20L451 44Z" />
<glyph unicode=":" glyph-name="colon" horiz-adv-x="337" d="M248 62Q248 28 226 5T170 -18Q135 -18 113 5T90 62Q90 98 110 118T170 138Q209 138 228 118T248 62ZM248 748Q248 713 226 691T170 669Q135 669 113 692T90 748Q90 785 110 805T170 825Q209 825 228
805T248 748Z" />
<glyph unicode=";" glyph-name="semicolon" horiz-adv-x="491" d="M374 946Q374 920 367 896T341 852Q307 818 248 818Q224 818 202 825T161 852Q141 877 132 901T122 946Q122 998 157 1036Q176 1055 199 1065T246 1075Q297 1075 337 1041Q355 1024 364 999T374
946ZM463 168Q463 103 443 41T381 -82T274 -201T119 -320V-250Q222 -169 281 -85T340 84Q340 106 334 127T314 174Q294 153 270 140T222 126Q177 126 149 155T120 231Q120 263 134 286T172 328Q196 346 221 353T277 361Q364 361 413 309T463 168Z" />
<glyph unicode="&lt;" glyph-name="less" horiz-adv-x="1365" d="M711 481Q700 482 700 485Q702 483 706 483Q707 483 708 482T711 481ZM1224 262Q1215 266 1202 271T1180 281Q1171 285 1161 289T1142 297Q1041 339 936 383T734 470L722 477Q719 477 716 478T704
487Q700 487 700 485Q698 485 698 486L694 488Q690 488 688 490H690Q689 491 688 491T680 493Q674 493 665 499Q663 499 661 500T655 502Q651 503 648 505V504H645V506Q641 507 637 508T630 511V510Q598 526 564 541T492 571Q489 571 486 574Q484 575 482 576T478
577Q475 579 470 581T457 588V587Q385 616 312 647T172 708Q170 708 168 709T164 712Q163 713 162 713T158 715Q156 715 153 718V717Q151 717 148 719T140 723V826Q184 845 236 867T335 910Q341 913 351 917T368 924Q373 926 379 927T390 931Q396 933 402 935T413
940Q427 946 441 952T470 965Q501 979 532 992T593 1017V1016Q614 1027 631 1035T655 1046Q658 1047 662 1048T668 1051V1050Q670 1051 672 1052T677 1053Q678 1053 678 1053T679 1054Q693 1062 705 1070T723 1074Q753 1086 785 1099T848 1125Q856 1129 866 1132T880
1137L883 1138Q896 1146 902 1149T911 1153T914 1154T918 1156Q923 1158 929 1160T940 1165Q945 1167 950 1169T962 1174Q983 1184 1006 1193T1053 1213Q1095 1230 1141 1249T1224 1286V1149L311 776Q332 767 350 758Q354 756 357 755T365 751L366 750Q368 748
375 745Q378 744 382 742T390 738L389 739Q390 739 392 739T397 738L412 732Q416 730 419 729T428 725V724Q437 719 439 718T442 717T442 718T445 718Q447 717 451 716T457 713L455 703Q464 703 464 703T464 706L460 707Q462 707 463 707T467 706H471Q474 703 480
703L495 697Q500 695 505 693T515 688V689Q524 685 533 682T550 675Q578 664 606 653T662 630Q728 602 800 572T946 511T1090 451T1224 396V262Z" />
<glyph unicode="=" glyph-name="equal" horiz-adv-x="946" d="M838 358H103V457H838V358ZM838 534H103V635H838V534Z" />
<glyph unicode="&gt;" glyph-name="greater" horiz-adv-x="1365" d="M203 1254Q202 1255 202 1255L203 1254ZM652 946H653V947L652 946ZM1224 716Q1222 715 1218 714T1213 712Q1199 707 1181 700T1152 690Q1150 688 1147 686T1141 683Q1133 679 1124 676T1106
668L1076 656Q1063 651 1051 647T1028 637V638Q1025 636 1023 635T1018 633Q1012 631 1008 629Q931 597 855 564T710 502Q704 500 698 498T687 493Q682 491 678 489Q668 485 667 485Q665 484 661 482T652 478L627 468Q601 455 572 443T510 418Q479 404 440 388T361
355T283 323T213 295V296L193 286Q191 285 190 285Q189 285 189 284Q188 283 188 283T186 282Q182 280 177 278T166 273Q161 271 152 268T140 262V395L1050 774Q1034 780 1018 786T985 800Q984 800 983 801Q982 802 981 802T978 804Q976 805 975 805T971 807V806Q936
821 907 833T842 860Q840 861 834 864T825 868V867Q792 882 762 895T697 921Q689 924 677 928T655 936Q657 936 655 940Q654 940 653 940T650 941L648 938Q645 940 640 942T629 947Q627 948 625 949T620 951H622Q621 951 621 951T619 952L604 959V958Q600 959 587
967L581 970Q579 971 578 971T573 972Q569 973 565 974T552 981Q551 981 550 982Q549 982 548 983Q547 983 546 983T543 984Q537 986 531 989Q527 991 523 992Q518 994 515 995T506 999Q483 1009 460 1018T411 1038Q397 1044 383 1049T355 1060Q320 1074 284 1089L278
1093V1092Q267 1097 256 1101T234 1109Q215 1117 197 1124T162 1140Q157 1142 151 1145T140 1150V1285Q145 1283 163 1274T197 1256L201 1254H203Q208 1251 227 1244Q227 1244 235 1240H234Q235 1239 236 1239Q237 1239 238 1239T242 1238Q245 1236 250 1235T258
1232V1233Q267 1229 275 1226T293 1219L308 1214Q312 1212 316 1211T324 1208Q415 1168 505 1130T687 1054Q698 1049 706 1045T726 1037Q727 1037 728 1037T730 1036L759 1021Q759 1020 761 1020L762 1019Q770 1014 790 1009Q815 998 843 987Q848 985 855 982T867
977H865Q866 977 867 976T873 973Q881 969 896 963L917 952Q919 951 923 949T936 945Q957 937 981 927T1028 907Q1031 905 1035 904T1042 900Q1043 899 1050 897Q1072 887 1094 879T1138 861Q1140 860 1146 858T1154 854Q1165 849 1175 845T1194 836Q1201 833 1210
830T1224 824V716Z" />
<glyph unicode="?" glyph-name="question" horiz-adv-x="917" d="M523 225Q523 202 515 178T487 131Q453 97 399 97Q373 97 348 107T306 135Q287 156 279 180T270 225Q270 285 304 319Q323 338 345 346T397 354Q424 354 447 345T487 318T513 277T523 225ZM889
1209Q889 1128 842 1047T702 882Q657 842 620 802T553 722T503 648T473 584V585Q457 530 453 432H344Q346 511 356 581T385 696Q394 715 407 741T437 796T475 858T519 924Q547 964 572 1005T617 1083T648 1151T660 1205Q660 1242 647 1272T610 1322T555 1353T486
1364Q423 1364 361 1331T257 1238Q242 1213 228 1183T201 1119T181 1049T170 974H93V1282Q162 1317 230 1345T362 1394T484 1426T590 1437Q647 1437 704 1420T808 1377Q842 1351 865 1307T889 1209Z" />
<glyph unicode="@" glyph-name="at" horiz-adv-x="1877" d="M1187 884Q1187 959 1157 995T1057 1032Q986 1032 913 966T773 788V789Q748 739 727 688T690 588T666 494T657 408Q657 275 773 275Q797 275 823 285T877 312T933 353T987 404Q1004 426 1023 454T1061
512T1097 573T1126 629Q1152 697 1169 765T1187 884ZM1837 305Q1783 157 1701 47T1504 -144Q1382 -229 1251 -272T974 -315Q921 -315 863 -306T748 -283T636 -249T537 -210Q488 -178 441 -139T351 -56T272 35T211 130Q157 237 131 350T105 585Q105 678 124 770T178
949T261 1117T368 1266Q435 1329 513 1380T678 1469T858 1526T1046 1546Q1201 1546 1330 1499T1557 1364Q1648 1268 1701 1142T1755 862Q1755 770 1735 682T1677 513T1588 362T1473 236Q1418 194 1352 169T1213 143Q1131 143 1090 181T1049 291Q1049 311 1052 340T1066
413Q1018 355 981 315T922 256Q896 234 868 216T811 184T755 163T704 155Q659 155 622 176T556 226Q536 259 521 304T506 389Q506 467 532 551T606 719Q628 755 654 792T709 865T768 931T828 987Q886 1038 948 1063T1062 1089Q1122 1089 1162 1059T1229 966Q1231
972 1232 975T1236 985Q1237 988 1238 991T1240 998Q1240 1000 1242 1006V1005Q1244 1011 1246 1019T1249 1030Q1251 1035 1251 1037T1252 1042Q1252 1043 1253 1046T1257 1055Q1259 1060 1261 1066Q1266 1066 1271 1066T1280 1067Q1282 1067 1287 1069Q1297 1070
1312 1072T1343 1077T1375 1082T1400 1087L1262 615Q1227 494 1208 412T1189 300Q1189 261 1209 244T1274 226Q1360 226 1438 287T1583 459V458Q1633 557 1661 658T1689 857Q1689 996 1642 1111T1510 1312H1511Q1421 1393 1304 1438T1044 1484Q988 1484 930 1474T816
1447T706 1405T607 1354Q564 1324 521 1284T438 1198T365 1102T308 1004H309Q285 948 265 888T229 766T206 644T198 526Q198 423 224 322T297 132Q345 43 420 -29T584 -156H583Q671 -199 769 -223T976 -248Q1112 -248 1231 -210T1458 -97Q1506 -66 1552 -21T1638
77T1712 189T1768 305H1837Z" />
<glyph unicode="A" glyph-name="A" horiz-adv-x="1237" d="M757 650Q733 719 710 788T664 923Q645 977 627 1032T588 1145Q587 1146 587 1148Q578 1126 570 1105T553 1062Q550 1053 547 1044T540 1025Q535 1011 528 996T516 966Q510 951 505 937T493 908Q466 841
442 780T391 650H757ZM1238 126H867V189H897Q907 189 907 217Q907 221 902 234L788 576H362Q329 479 312 410T295 296Q295 248 326 219T407 189H465V126H6V185Q67 197 118 258T212 422V421Q211 419 211 419L215 426Q217 431 217 432T218 434L223 444Q224 446 225
449T227 461Q229 466 232 475Q234 480 236 485T241 497Q249 518 258 543T278 594T297 645T316 692Q317 694 318 696T319 701Q322 709 325 716T331 731Q331 735 333 737L332 734Q332 735 333 736T334 739Q336 741 338 749Q346 769 354 788T370 827Q372 832 374 837T378
848Q380 852 381 855T384 864Q385 866 390 878V881Q391 883 393 887T396 894Q397 896 397 896T397 898Q397 903 399 907L409 935Q427 978 447 1027T488 1128T529 1231T566 1328Q566 1330 567 1333T569 1338Q569 1340 570 1341T572 1345L578 1357Q579 1359 580 1364T582
1367Q582 1370 585 1373Q586 1375 586 1375T587 1378H586Q587 1380 588 1383T590 1388Q592 1394 595 1401T601 1416Q604 1425 608 1436T620 1461H688Q691 1452 694 1440T701 1416Q703 1408 705 1401T710 1386Q711 1377 716 1368Q718 1362 721 1354T727 1340Q731
1329 733 1323T739 1305Q740 1302 741 1298T744 1290Q745 1286 746 1282T750 1273Q752 1269 752 1269T754 1263Q757 1255 760 1245T767 1227Q769 1220 771 1215T776 1204Q777 1202 778 1198T782 1188L788 1170Q796 1147 804 1123T819 1080Q827 1060 833 1040T846
999Q853 978 860 957T875 916Q911 814 946 711T1011 519Q1013 514 1015 507T1020 494Q1022 490 1023 486T1026 477Q1028 473 1029 469T1032 460Q1034 455 1035 452T1038 444Q1047 420 1057 395T1077 347T1094 309T1105 286Q1129 242 1161 217T1238 189V126Z" />
<glyph unicode="B" glyph-name="B" horiz-adv-x="1109" d="M792 1046Q792 1106 776 1158T737 1251V1250Q702 1294 653 1321T553 1348Q505 1348 471 1339T404 1306V852H590Q695 852 743 901T792 1046ZM838 459Q838 537 817 595T748 700Q697 748 637 770T496 792H404V282Q456
244 505 225T611 206Q660 206 705 225T779 280Q802 314 820 361T838 459ZM1042 582Q1042 535 1030 491T996 404T944 324T878 253Q800 196 709 161T527 126H55V189Q99 191 130 199T175 222Q186 238 195 268T205 341V1198Q205 1233 196 1265T175 1317Q160 1329 130
1337T55 1347V1408H660Q731 1408 788 1397T883 1364Q928 1338 955 1290T982 1178Q982 1130 968 1084T921 993T838 904T715 813Q859 807 928 775Q982 748 1012 699T1042 582Z" />
<glyph unicode="C" glyph-name="C" horiz-adv-x="1259" d="M1209 373Q1133 314 1055 264T902 176T756 118T628 97Q506 97 403 147T222 285Q189 327 162 377T115 481T84 594T73 710Q73 805 96 892T163 1058T269 1205T412 1330Q493 1379 593 1408T800 1437Q891 1437
989 1419T1175 1372V1063H1097Q1091 1098 1079 1131T1048 1193T1009 1248T966 1292Q916 1320 849 1340T713 1361Q662 1361 614 1349T521 1316T439 1264T370 1197Q320 1123 290 1025T260 822Q260 769 269 715T296 610T336 513T385 429Q419 391 460 360T548 305T645
269T748 256Q858 256 969 303T1209 450V373Z" />
<glyph unicode="D" glyph-name="D" horiz-adv-x="1451" d="M1178 774Q1178 1063 1058 1206T691 1350Q610 1350 540 1332T410 1277V297Q491 249 565 228T713 206Q764 206 813 219T907 256T993 312T1066 381Q1089 419 1109 465T1145 562T1169 666T1178 774ZM1376
904Q1376 735 1318 591T1153 341Q1099 293 1035 253T898 185T749 142T591 126H65V189Q107 191 137 200T185 224H184Q216 256 216 341V1198Q216 1239 208 1268T184 1314Q169 1329 138 1337T65 1347V1408H847Q1114 1408 1245 1282T1376 904Z" />
<glyph unicode="E" glyph-name="E" horiz-adv-x="981" d="M974 506Q970 498 967 490T962 476Q959 469 957 463Q955 452 953 439T948 414L939 367Q939 363 937 359Q937 358 937 358T936 356Q935 354 935 352Q934 350 934 345Q934 344 934 343T933 341V335Q932 333
932 330Q932 329 931 328L925 297Q924 295 924 292T922 287L923 288Q922 285 922 282T921 277Q919 271 919 268L913 240Q912 238 912 233Q912 231 912 230T911 227Q911 226 911 224T910 221Q909 219 908 217T907 214L908 215Q907 212 907 208T905 198Q904 196 904
194T903 190Q901 184 901 185V176H898V170Q898 168 898 167T897 164V160Q896 158 896 153Q896 152 896 151T895 149Q894 142 894 137T891 127Q887 117 887 114Q886 112 886 109Q886 108 886 108T885 105Q885 104 885 104T884 101Q884 100 884 99T883 96V82H822Q819
126 791 126H62V189Q110 191 139 199T180 221Q194 236 202 266T211 341V1197Q211 1239 203 1269T179 1316Q166 1333 140 1339T62 1347V1408H776Q801 1408 818 1421T840 1458H894V1066H810Q802 1204 721 1275T477 1347H408Q401 1293 400 1246T399 1160Q399 996 464
916T668 836H772V756L411 745V189H507Q669 189 763 267T883 506H974Z" />
<glyph unicode="F" glyph-name="F" horiz-adv-x="875" d="M892 1062H809Q806 1138 780 1197T715 1292Q679 1316 616 1331T474 1347H404Q399 1293 398 1247T397 1159Q397 1080 412 1013T448 908V909Q484 867 544 839T684 811H771V731L407 723V341Q407 266 443 229T555
189V126H59V189Q103 191 132 199T176 222Q191 238 199 267T208 341V1198Q208 1236 200 1267T175 1317Q162 1331 133 1338T59 1347V1408H816Q832 1408 838 1452H892V1062Z" />
<glyph unicode="G" glyph-name="G" horiz-adv-x="1365" d="M1314 628Q1282 626 1263 615T1230 586L1231 587Q1223 570 1216 546T1209 498V80H1149Q1137 257 1025 257Q999 257 966 244T901 210L897 215Q898 214 897 211T888 203H889Q877 196 871 192T863 186Q791
144 722 121T597 97Q527 97 459 122T331 190Q274 227 229 280T148 395Q112 467 95 542T78 697Q78 797 102 890T181 1072V1071Q228 1156 296 1225T442 1343Q527 1389 619 1413T812 1437Q850 1437 894 1433T986 1420T1083 1399T1181 1372V1063H1096Q1086 1132 1052
1190T968 1289Q944 1303 915 1315T853 1337T787 1352T722 1358Q676 1358 629 1346T538 1312T453 1262T380 1203Q356 1168 335 1125T298 1035T273 938T263 839Q263 787 272 733T296 627T332 527T376 437Q409 398 450 363T538 300T633 256T730 240Q782 240 836 257T930
303Q971 338 999 385T1028 484Q1028 628 845 628H802V686H1314V628Z" />
<glyph unicode="H" glyph-name="H" horiz-adv-x="1408" d="M1348 126H847V189Q941 194 967 222Q982 238 990 267T999 341V788H407V341Q407 266 444 229T559 189V126H58V189Q148 194 183 224Q210 257 210 341V1198Q210 1283 181 1315V1314Q166 1329 135 1337T58
1347V1408H559V1347Q518 1345 487 1337T439 1317Q425 1301 416 1271T407 1198V863H999V1198Q999 1236 991 1267T966 1317Q939 1344 847 1347V1408H1348V1347Q1259 1342 1223 1316Q1212 1299 1204 1268T1196 1198V341Q1196 253 1224 225H1223Q1241 208 1272 200T1348
189V126Z" />
<glyph unicode="I" glyph-name="I" horiz-adv-x="619" d="M566 126H69V189Q113 191 144 199T189 222Q204 238 212 267T221 341V1198Q221 1280 188 1315V1314Q174 1328 143 1336T69 1347V1408H566V1347Q526 1345 492 1337T444 1315Q414 1279 414 1198V341Q414 266
451 229T566 189V126Z" />
<glyph unicode="J" glyph-name="J" horiz-adv-x="597" d="M561 1347Q519 1345 488 1337T440 1316Q428 1298 420 1267T412 1197V364Q412 283 395 204T347 51T272 -90T174 -215Q126 -263 68 -292T-42 -321Q-64 -321 -93 -317T-155 -301V26H-71Q-68 -19 -62 -51T-44
-99Q-21 -140 6 -164T71 -189Q143 -189 177 -108T212 133V1197Q212 1240 204 1270T180 1316V1315Q166 1329 137 1337T63 1347V1408H561V1347Z" />
<glyph unicode="K" glyph-name="K" horiz-adv-x="1195" d="M1225 126H892L870 156Q871 156 871 157Q865 165 859 171L867 179Q848 198 845 198T855 178Q855 179 854 180T852 184L850 188V187Q840 201 830 214T808 242L787 270Q768 294 750 319T712 367Q707 377
697 391T675 420Q674 421 670 427Q667 430 663 436Q659 440 655 449V448Q630 480 605 512T556 579Q548 590 538 603T520 628Q504 647 489 666T460 705Q454 713 447 723T433 741Q427 750 422 758T410 777Q408 775 408 773T406 768V341Q406 266 441 229T558 189V126H56V189Q151
194 177 222Q192 238 200 267T209 341V1197Q209 1240 201 1270T178 1315Q161 1330 134 1338T56 1347V1408H558V1347Q516 1345 482 1337T434 1315V1316Q422 1299 414 1269T406 1197V825Q408 823 408 822T411 819Q429 839 448 857T486 896L523 932Q537 945 549 957T573
982L635 1045Q710 1120 755 1182T800 1289Q800 1342 697 1347V1408H1163V1350Q1097 1342 1029 1301T888 1189H889Q859 1158 828 1129T766 1070Q743 1048 722 1026T677 982H678Q667 971 656 961T633 940Q618 927 604 913T575 884Q586 867 600 847T630 808Q636 800
642 792T656 776Q665 765 673 754T692 730L696 721Q696 720 697 720Q704 708 712 700Q720 688 732 671T755 641Q763 630 771 619T787 598Q792 591 796 585T806 571Q810 566 813 562T819 554L823 550Q824 549 824 549T824 548Q829 540 835 532T847 517Q853 510 861
497V498Q891 459 915 426Q952 380 993 339T1074 266T1153 213T1225 188V126Z" />
<glyph unicode="L" glyph-name="L" horiz-adv-x="960" d="M967 504Q967 502 967 495T966 486V487Q965 484 965 482T963 477Q962 475 962 468Q960 457 959 450Q957 442 956 434T952 418Q949 402 946 387T939 357Q937 345 935 337Q933 331 932 323T928 308Q927 307
927 304Q927 303 926 302H927L925 296L922 281Q922 280 922 279T921 275Q919 273 919 267T917 253Q913 242 913 240Q912 238 912 232Q912 231 912 230T911 226Q910 225 910 223Q910 222 909 221L907 213Q906 208 906 205T904 197Q904 196 904 196T903 194Q902 189
902 185T900 173Q897 167 895 159Q894 157 894 150Q893 147 893 144Q890 132 885 112T878 79H823Q820 126 787 126H63V189Q154 194 180 222Q195 238 203 267T212 341V1197Q212 1239 204 1269T180 1316Q167 1333 141 1339T63 1347V1408H563V1347Q521 1345 489 1337T444
1316V1317Q430 1301 422 1270T413 1197V189H533Q679 189 767 267T884 504H967Z" />
<glyph unicode="M" glyph-name="M" horiz-adv-x="1813" d="M1801 126H1296V189Q1335 192 1361 200T1403 223T1426 262T1433 321Q1433 324 1433 330T1432 341L1431 348V353Q1429 373 1427 396T1422 441Q1420 460 1418 478T1414 513Q1409 561 1405 609T1396 704Q1395
713 1395 721T1393 739Q1388 793 1382 851T1370 965Q1367 994 1364 1021T1359 1074Q1357 1089 1357 1097T1354 1123Q1322 1066 1291 1006T1230 886T1175 772T1127 668Q1122 655 1116 641T1104 614Q1102 612 1101 609Q1099 607 1099 605T1097 601Q1095 597 1093
594T1091 590Q1087 582 1084 573T1077 555Q1072 545 1069 535T1060 514Q1051 494 1042 474T1025 434Q1008 395 989 351T951 260T912 167T876 79H822L366 1207Q364 1190 363 1175T359 1142Q355 1109 352 1076T346 1009Q345 1005 345 1000Q345 997 345 994T344 988Q343
982 343 977T342 967Q341 961 341 956T340 944Q339 939 339 935T338 929Q337 917 337 906T334 885V886Q329 832 325 779T318 675T313 581T311 503Q311 209 470 186V126H5V186Q53 202 87 237T143 330Q149 341 155 360T168 404T182 454T196 507Q198 512 199 518T202
530Q212 573 221 623T238 726T252 831T262 929Q264 952 266 976T271 1027Q271 1029 271 1035T272 1047Q272 1050 272 1055T274 1062Q275 1075 277 1092Q277 1098 277 1104T278 1115Q278 1116 278 1117T279 1119L280 1122V1129Q280 1130 280 1130T281 1132Q281 1134
281 1139T282 1149Q282 1153 282 1158T284 1166V1168Q284 1169 284 1170T285 1173Q286 1178 286 1183T287 1196Q288 1203 288 1212T288 1230Q288 1301 260 1326Q240 1344 159 1347V1408H497L916 371Q916 371 918 375Q919 377 921 383T927 398H928V399Q928 400 929
401Q930 403 931 406T935 413Q937 416 937 419T939 425Q939 426 943 436Q945 441 945 441T948 448Q948 448 951 456Q954 462 956 468T959 477Q961 482 962 486T966 496Q1012 603 1061 716T1151 931Q1183 1004 1211 1074T1262 1207T1304 1321T1335 1408H1698V1347Q1657
1345 1627 1341T1584 1328H1585Q1565 1314 1557 1288T1548 1224V1207Q1548 1198 1548 1190T1549 1172V1163Q1549 1161 1549 1159T1550 1155Q1550 1151 1550 1146T1552 1135Q1552 1132 1552 1129T1553 1123Q1553 1118 1554 1115Q1556 1095 1557 1076T1561 1037V1032Q1561
1030 1561 1030T1562 1028Q1566 983 1570 943T1579 857Q1581 848 1581 836T1583 809Q1583 806 1583 802T1585 792V793Q1586 790 1586 781V776Q1586 774 1586 773T1587 771Q1590 736 1593 702T1601 636Q1601 631 1601 626T1603 616Q1604 613 1604 609T1604 603Q1604
600 1604 597T1605 591Q1606 582 1606 574T1609 555V540L1611 536Q1612 532 1612 525Q1612 522 1612 519T1613 513Q1614 508 1614 503T1615 494Q1615 491 1615 488T1616 480Q1616 472 1617 468Q1618 460 1618 453T1620 439V427L1621 424Q1621 421 1621 418T1622
412Q1628 353 1636 310T1653 251V252Q1670 225 1707 208T1801 189V126Z" />
<glyph unicode="N" glyph-name="N" horiz-adv-x="1387" d="M1376 1350Q1285 1336 1241 1188T1196 759V80H1136L295 1224V875Q295 750 300 655T313 494Q333 356 372 278T478 186V126H34V188Q122 212 167 380T213 863V1207Q213 1242 205 1270T186 1314Q169 1327
138 1336T63 1347V1408H401L1109 454V728Q1109 1022 1065 1177T929 1350V1408H1376V1350Z" />
<glyph unicode="O" glyph-name="O" horiz-adv-x="1493" d="M1236 652Q1236 745 1217 831T1162 995H1163Q1121 1077 1064 1144T938 1253H939Q868 1292 803 1312T675 1333Q572 1333 498 1300T367 1197Q258 1070 258 870Q258 809 269 748T301 627T348 513T406 413Q447
367 495 329T597 262T708 217T824 201Q921 201 993 233T1125 338Q1236 462 1236 652ZM1418 826Q1418 729 1392 635T1305 448Q1250 363 1176 296T1017 186Q938 144 850 121T679 97Q550 97 442 140T246 271Q158 357 117 464T76 704Q76 857 127 983T288 1218Q504 1437
799 1437Q877 1437 950 1417T1090 1361T1215 1275T1321 1165Q1369 1096 1393 1008T1418 826Z" />
<glyph unicode="P" glyph-name="P" horiz-adv-x="981" d="M804 1050Q804 1108 789 1161T752 1252V1251Q725 1297 678 1321T577 1346Q530 1346 491 1332T406 1287V895Q466 847 519 826T622 804Q804 804 804 1050ZM1014 1175Q1014 1095 976 1015T863 860Q712 718
548 718Q516 718 481 725T406 750V341Q406 266 443 229T555 189V126H56V189Q101 191 132 199T176 221Q189 237 197 267T206 341V1198Q206 1240 198 1269T175 1316Q161 1332 131 1338T56 1347V1408H690Q1014 1408 1014 1175Z" />
<glyph unicode="Q" glyph-name="Q" horiz-adv-x="1493" d="M1244 661Q1244 750 1224 834T1165 1000Q1127 1080 1068 1145T938 1256H939Q876 1292 808 1315T679 1338Q635 1338 593 1328T510 1300T435 1256T371 1199Q347 1167 327 1130T291 1050T268 964T259 873Q259
792 282 711T344 556T434 417T543 300Q573 280 607 263T679 234T754 215T829 208Q924 208 997 240T1131 345Q1186 408 1215 486T1244 661ZM1482 -65Q1462 -85 1444 -106T1410 -147L1405 -152Q1400 -159 1396 -161Q1388 -172 1383 -175H1384Q1382 -177 1381 -178T1378
-182V-181Q1364 -196 1354 -205Q1307 -241 1265 -262T1187 -283Q1170 -283 1138 -268T1065 -229T979 -173T891 -108Q853 -78 808 -44T720 21T640 77T582 112Q570 117 556 121T531 126Q513 126 493 119T447 94T390 50T318 -18V68Q341 95 363 121T413 175Q375 193
341 216T276 265T220 318T176 372Q156 411 139 454T109 541T89 628T81 711Q81 795 110 881T189 1047T302 1200T436 1329Q478 1352 525 1372T620 1406T715 1429T807 1437Q887 1437 961 1418T1101 1363T1223 1278T1322 1169Q1343 1133 1361 1091T1392 1005T1414 917T1422
830Q1422 574 1252 371Q1171 278 1073 216T853 123Q891 107 944 73T1054 -7Q1086 -32 1117 -53T1175 -91T1226 -116T1265 -125Q1297 -125 1349 -90T1482 23V-65Z" />
<glyph unicode="R" glyph-name="R" horiz-adv-x="1109" d="M826 507V508Q827 506 827 506L826 507ZM762 1044Q762 1101 749 1153T712 1245V1244Q683 1293 641 1320T546 1348Q509 1348 474 1337T401 1302V894Q460 852 505 833T594 813Q762 813 762 1044ZM1159 126H915Q880
126 846 151T786 215L401 805V341Q401 266 438 229T553 189V126H54V189Q98 191 129 199T174 222Q189 238 197 267T206 341V1198Q206 1236 198 1267T173 1317Q160 1331 130 1338T54 1347V1408H689Q836 1408 906 1354T977 1184Q977 1066 901 960T665 760Q673 748
687 720V721L708 688Q720 669 731 652T755 617Q759 611 763 604T772 591Q774 586 779 579T792 562Q797 553 802 545T814 529Q816 525 818 523Q819 521 821 515T826 505Q828 500 827 506L829 504Q833 496 834 494T842 485Q843 482 845 479T850 472L854 462L863 454L862
453Q876 434 886 420T899 399Q929 359 962 323T1030 258T1097 210T1159 186V126Z" />
<glyph unicode="S" glyph-name="S" horiz-adv-x="917" d="M864 503Q864 465 853 426T820 350T771 278T709 215Q637 159 554 128T393 97Q363 97 327 102T251 115T172 136T94 163V529H176Q177 457 196 398T252 291Q291 236 344 208T464 179Q485 179 507 184T552
199T594 219T631 241Q659 272 676 314T694 399Q694 447 668 499T596 596Q582 608 560 625T513 660T459 699T404 737Q402 738 401 739T401 740Q397 742 397 743Q392 743 390 748Q365 764 338 782T285 819T237 855T198 886Q187 897 174 917T145 968Q122 1019 122
1073Q122 1154 159 1219T267 1341Q409 1437 565 1437Q607 1437 672 1423T810 1384V1062H723Q718 1121 699 1175T658 1266Q622 1306 575 1331T476 1356Q436 1356 404 1344T344 1308Q312 1282 299 1250T286 1180Q286 1132 318 1083T403 983Q415 970 436 953T483 917T539
876T598 835Q667 793 716 758T782 705Q824 662 844 612T864 503Z" />
<glyph unicode="T" glyph-name="T" horiz-adv-x="1067" d="M1060 1063H978Q973 1206 901 1276T683 1347H636V341Q636 266 673 229T788 189V126H291V189Q335 191 366 199T411 222Q426 238 434 267T443 341V1347H380Q243 1347 176 1278T104 1063H23V1453H75Q90 1408
110 1408H974Q999 1408 1002 1453H1060V1063Z" />
<glyph unicode="U" glyph-name="U" horiz-adv-x="1387" d="M1365 1349Q1272 1328 1227 1174T1182 735Q1182 647 1182 584T1180 500Q1174 434 1156 376T1109 274Q1051 189 947 143T694 97Q540 97 431 145T259 279Q227 325 214 378T200 494V1197Q200 1239 191 1269T165
1316Q140 1346 48 1347V1408H542V1347Q503 1345 471 1337T424 1315Q393 1279 393 1197V502Q393 460 404 420T435 345T479 279T534 226Q576 203 626 189T737 174Q856 174 937 222T1059 350Q1076 395 1086 463T1097 615Q1097 752 1094 856T1083 1021Q1073 1088 1058
1146T1021 1247T974 1318T916 1350V1408H1365V1349Z" />
<glyph unicode="V" glyph-name="V" horiz-adv-x="1259" d="M1262 1351Q1236 1345 1208 1323T1153 1268T1101 1193T1054 1106Q1031 1051 1006 987T958 863Q954 855 952 849T948 838Q947 836 946 833Q945 831 945 828T943 823Q941 820 937 810Q935 806 934 801V800Q932
795 932 796T931 793Q929 791 928 788T924 779Q921 774 919 768Q918 767 918 766Q918 765 918 765T917 763Q917 762 917 762T916 760V759Q911 748 907 737T899 716Q895 706 891 697T883 677Q883 667 881 662T875 652Q873 650 872 647T869 642Q867 632 864 621T857
602Q846 574 834 545T810 487Q796 452 782 417T753 348Q738 311 723 272T694 197Q688 182 682 166T669 134Q664 121 659 108T649 82H579L223 1122Q205 1165 183 1205T137 1276T88 1327T35 1351V1408H401V1347Q362 1342 362 1327Q362 1321 365 1309T373 1282Q380
1263 386 1244T400 1206Q408 1182 416 1158T433 1109Q453 1048 477 980T525 844Q551 771 577 696T625 554Q638 516 653 474T682 390L689 410V409Q689 410 689 410T690 412Q692 417 696 426T705 446Q705 447 705 448T706 451Q708 456 708 459T710 464Q711 466 711
466T713 469L712 468Q713 471 714 476T715 479L719 490Q720 493 721 498T725 505H724Q729 515 732 524T741 546Q742 547 742 548Q742 551 744 555Q746 559 749 568L755 583Q757 588 759 594T764 606Q765 609 767 613T771 622Q773 627 775 633Q776 634 779 640Q779
641 780 645T784 653Q792 671 798 687Q820 741 839 790T874 884Q890 929 905 977T933 1069T952 1152T959 1218Q959 1284 921 1314T801 1347V1408H1262V1351Z" />
<glyph unicode="W" glyph-name="W" horiz-adv-x="1984" d="M686 157H687V156L686 157ZM686 157H677Q677 162 679 164L686 157ZM1980 1351Q1923 1343 1868 1269T1764 1075Q1759 1066 1755 1054T1745 1030Q1740 1019 1735 1007T1726 984L1699 918Q1692 901 1686
884T1672 851Q1654 804 1633 751T1591 643T1549 536T1510 439L1471 347Q1466 335 1462 323T1452 299L1367 79H1297L1008 910Q966 833 931 755T865 601Q849 563 834 526T805 450Q805 449 805 449T804 448V447Q802 440 799 433T793 418Q791 414 790 411T787 404Q786
402 784 397T781 390H782Q777 379 773 368T763 347Q761 345 761 344T760 340Q761 341 759 335T755 324Q753 318 751 312T746 301L732 266Q731 264 729 259T725 251Q724 250 724 248Q723 246 721 242T717 229Q714 223 709 221L713 220Q709 212 706 203T699 185Q697
180 695 175T691 164L683 165Q683 173 681 172T674 154L684 150Q682 144 682 141Q682 140 682 138T681 134Q679 129 677 124T673 114Q673 113 673 113T672 112V111Q671 108 669 103T658 79H594L257 1070Q229 1159 195 1223T128 1319Q117 1327 98 1335T59 1351V1408H416V1351Q382
1345 382 1323Q382 1314 386 1305L693 391Q694 392 694 393T695 396Q695 398 696 399Q696 403 698 405Q700 410 701 413T703 419L707 431Q709 436 710 440T714 450Q718 459 723 468T733 485Q732 485 731 487Q729 490 733 498Q734 500 735 502T738 508V506Q738 508
739 509T741 513Q742 515 743 517T745 522L744 521Q746 526 746 531T749 539Q750 543 752 545Q756 553 757 554V552Q757 554 758 555T760 559Q760 567 765 574V576Q765 577 766 578Q767 579 768 583V584L777 602L779 610Q796 655 813 701T851 790Q867 833 880 878T904
967T919 1054T925 1134Q925 1335 757 1347V1408H1119V1348Q1101 1346 1090 1340T1079 1324Q1079 1321 1081 1316T1085 1305L1394 394Q1405 422 1416 451T1439 510Q1457 556 1476 605T1515 703T1554 798T1590 886Q1608 936 1624 986T1653 1080T1673 1161T1681 1218Q1681
1256 1672 1284T1645 1326H1646Q1633 1333 1602 1338T1519 1347V1408H1980V1351Z" />
<glyph unicode="X" glyph-name="X" horiz-adv-x="1237" d="M895 533V534V533ZM905 517V516V517ZM1227 126H818V188Q835 190 846 197T857 215Q857 218 856 221T852 228Q816 290 782 348T713 463T644 579T571 699Q352 410 352 283Q352 237 385 214T488 189V126H0V190Q34
194 72 215T149 268T225 341T295 423Q302 433 309 442T324 463L345 493Q366 521 386 549T427 607Q433 615 439 624T451 641Q453 643 454 645T458 649Q461 653 464 656T470 665Q475 672 479 678T489 692Q502 709 513 724T537 760Q536 761 536 762T534 766Q533 768
532 769L528 778Q526 782 524 786T518 794L497 827Q486 844 476 862T454 899Q437 927 420 954T388 1009Q389 1009 389 1009Q381 1018 373 1033V1032Q365 1043 364 1049Q363 1050 362 1050T360 1053Q360 1053 350 1070Q342 1083 334 1095T318 1120Q259 1222 195
1282T64 1350V1408H465V1347Q422 1343 422 1331V1322L547 1116Q578 1066 603 1024T661 931Q746 1051 786 1130T827 1257Q827 1302 792 1323T676 1347V1408H1165V1350Q1130 1345 1093 1325T1019 1275T944 1204T872 1120Q860 1103 847 1085Q839 1077 833 1069T822
1052Q817 1046 813 1039T803 1026Q794 1013 784 999T763 971Q743 944 723 918T687 870Q688 868 689 867L690 864Q692 861 697 854Q699 850 701 848T706 840Q707 839 708 837T710 834Q713 827 720 818Q721 816 725 809T734 794Q734 795 735 795Q737 793 738 793V790Q738
788 739 788Q741 784 743 779T751 766Q755 764 758 761Q758 761 764 752Q787 717 811 677T855 599Q858 594 861 589T867 578Q868 577 869 575Q871 571 873 569Q875 567 876 564T879 559Q879 559 884 552Q885 551 885 550Q885 548 886 548L890 544V542L895 532V533L905
516V515V516L906 515Q907 513 909 513Q910 511 912 509T917 501V502Q920 497 922 494T927 487L931 481Q933 478 934 475T938 470Q940 465 942 462T948 454L956 438H955Q957 433 965 424Q966 421 968 417Q970 414 971 410T974 404V403Q981 391 988 380T1002 360Q1017
336 1034 313T1069 271T1106 237T1141 214Q1152 208 1176 201T1227 186V126Z" />
<glyph unicode="Y" glyph-name="Y" horiz-adv-x="1195" d="M1239 1351Q1212 1346 1181 1325T1117 1273T1054 1204T996 1126Q978 1095 956 1057T912 980T867 904T828 836Q802 795 777 753T728 669Q723 660 718 652T708 635V636Q707 633 706 631T702 625V341Q702
266 737 229T853 189V126H352V189Q396 191 426 199T471 222Q486 238 495 268T505 341V627Q441 748 381 870T260 1115Q250 1134 239 1154T215 1195T192 1232T172 1262Q144 1297 109 1320T32 1347V1408H408V1347Q369 1342 369 1329Q369 1325 371 1315Q371 1310 371
1310Q406 1240 440 1173T509 1036Q526 1001 543 967T578 898Q584 886 590 874T602 851Q608 840 614 829T626 807H625Q635 789 644 772T663 735Q668 726 670 720T678 704Q912 1074 912 1237Q912 1309 867 1329Q851 1337 823 1341T748 1347V1408H1239V1351Z" />
<glyph unicode="Z" glyph-name="Z" horiz-adv-x="1216" d="M1191 506Q1191 502 1191 496T1190 487Q1189 482 1188 477T1186 469Q1186 471 1184 463L1182 455Q1182 453 1181 450T1180 445Q1180 444 1180 443T1179 440Q1179 433 1177 429L1178 430Q1166 382 1157
337Q1156 334 1157 334T1157 331Q1155 326 1155 325T1154 322Q1154 321 1154 320T1153 317Q1152 312 1151 304T1148 290Q1147 287 1147 284T1145 277Q1144 274 1144 271T1143 264Q1141 257 1140 251T1138 238Q1136 223 1135 215Q1135 212 1135 208T1133 198Q1132
196 1132 194T1131 190Q1129 184 1129 185V176H1126V170Q1126 168 1126 167T1125 164V160Q1124 158 1124 153Q1124 152 1124 151T1123 149Q1122 142 1122 137T1119 127Q1115 117 1115 114Q1114 112 1114 109Q1114 108 1114 108T1113 105Q1113 104 1113 104T1112
101Q1112 100 1112 99T1111 96V82H1048Q1045 126 1031 126H76V194L885 1347H605Q512 1347 445 1335T335 1302H336Q287 1272 256 1212T219 1063H135V1453H196Q198 1429 205 1419T227 1408H1121V1343L308 189H593Q702 189 785 203T924 240L923 239Q953 258 982 285T1037
345T1081 419T1110 506H1191Z" />
<glyph unicode="[" glyph-name="bracketleft" horiz-adv-x="581" d="M456 -530H87V-421H294V768H87V872H456V-530Z" />
<glyph unicode="\" glyph-name="backslash" horiz-adv-x="933" d="M726 -225Q721 -230 717 -233T704 -237Q702 -238 697 -238Q695 -238 695 -238T693 -239Q692 -239 691 -239T688 -240Q683 -243 679 -243Q667 -252 661 -250Q657 -253 652 -253T633 -254Q585 -108
541 37T452 329V328Q439 368 427 407T402 487Q398 498 394 511T385 542Q383 548 382 554T378 566Q376 574 375 577L370 599Q369 601 369 604T367 611Q366 614 366 616T365 622V621Q357 645 348 671T331 725V724Q322 751 314 777T298 830V829Q297 831 296 834T294
841Q293 844 293 846T291 852Q289 858 288 863T284 875V874Q281 883 279 892T273 909Q269 920 266 931T258 955V954Q256 960 254 966T250 980Q244 998 239 1017T229 1056Q223 1075 216 1098T202 1146T186 1194T172 1237L202 1239Q204 1240 207 1240T213 1242Q214
1242 215 1242T218 1243Q226 1245 237 1250T265 1263L726 -225Z" />
<glyph unicode="]" glyph-name="bracketright" horiz-adv-x="581" d="M492 -421V-530H128V872H492V768H286V-421H492Z" />
<glyph unicode="^" glyph-name="asciicircum" horiz-adv-x="960" d="M234 846L231 843L234 846ZM234 846Q236 848 237 850V849L234 846ZM445 1376Q443 1374 443 1374V1375L445 1377V1376ZM243 860V861Q243 862 244 863Q246 864 244 860T237 850Q237 853 239 855Q240
855 240 856Q240 857 241 858L243 860ZM424 1342Q412 1329 416 1337T443 1374V1373L439 1365Q437 1362 436 1360T435 1359L436 1361Q431 1356 429 1351Q425 1345 424 1342ZM930 684H824L480 1258Q479 1257 479 1257Q476 1252 473 1246T467 1235Q458 1221 450 1207T431
1177V1178Q403 1128 372 1078T311 981Q310 980 310 979Q308 977 308 974Q306 970 306 969V967L300 966Q297 961 295 957T290 948L266 905H267Q266 903 266 903T265 901Q264 899 262 895T258 889L255 883Q250 874 250 873Q248 871 247 869T245 865Q244 864 244 863Q241
863 217 839L225 832Q220 824 216 817T210 808Q208 805 206 801T202 794Q197 786 191 777T183 764V765Q172 744 172 744Q165 736 165 735L162 727L153 712V713L150 707Q149 706 149 705T148 703V704Q146 700 144 696T136 686Q135 685 136 685T136 684H30L76 759Q76
760 77 761T78 764L87 772V777L89 775L105 789Q103 790 101 791T98 792Q104 805 108 813T117 825Q117 826 118 829Q119 831 121 835T125 844Q130 851 130 852L133 858V857Q135 859 136 861T139 867V866Q144 877 149 886T159 900V899Q170 919 179 934T194 956Q195
957 196 960T199 965V964Q200 966 201 968T203 972L204 974V972L213 990V988Q215 991 216 994T220 1001Q221 1003 224 1006H223Q224 1007 224 1008T226 1011V1009Q227 1011 228 1013T231 1018Q232 1019 232 1019T232 1020V1018L244 1039Q250 1050 257 1061T269
1083Q271 1087 273 1090T277 1098L304 1143Q309 1151 313 1158T323 1173Q350 1215 375 1257T424 1342Q429 1346 434 1352T449 1366L451 1383Q451 1382 452 1385T455 1390Q455 1390 456 1396L460 1404Q461 1405 461 1406T463 1408H503L930 684Z" />
<glyph unicode="_" glyph-name="underscore" horiz-adv-x="1024" d="M1035 -254H-11V-139H1035V-254Z" />
<glyph unicode="`" glyph-name="grave" horiz-adv-x="683" d="M418 1195L393 1194L391 1193L372 1174L226 1340Q164 1413 164 1439Q164 1473 181 1489T227 1505Q247 1505 264 1488T299 1440L418 1195Z" />
<glyph unicode="a" glyph-name="a" horiz-adv-x="960" d="M614 677Q584 669 551 659T486 637T425 611T372 584Q302 536 261 481T219 370Q219 313 255 278T351 243Q418 243 471 283T560 402Q587 465 600 531T615 676L614 677ZM950 248Q878 178 812 138T701 97Q604
97 604 204V327Q486 209 398 153T241 97Q203 97 169 115T108 163Q85 195 71 231T56 306Q56 417 191 532T604 775V887Q604 941 574 974T490 1007Q439 1007 390 979T303 899V900Q280 855 259 798T228 674H150V927Q205 960 262 987T376 1035T486 1066T585 1077Q637
1077 672 1067T730 1035T761 976T771 887V269Q771 231 805 231Q822 231 856 254T950 334V248Z" />
<glyph unicode="b" glyph-name="b" horiz-adv-x="1045" d="M306 780V779V780ZM326 794Q324 793 321 790L316 786H318L309 782Q314 786 318 789T326 794ZM847 613Q847 675 836 728T806 820Q778 873 736 900T636 928Q564 928 499 882T385 751V752Q347 680 323 596T299
431Q299 396 300 362T310 290Q370 259 435 241T565 223Q640 223 696 253T790 347V346Q818 394 832 459T847 613ZM1007 712Q1007 652 995 586T956 460Q927 401 889 347T813 253Q768 218 723 190T638 148Q605 137 556 132T441 126H352Q315 126 289 125T249 121H250Q224
113 198 100T161 67H90Q121 124 133 185T146 308V1284Q146 1326 133 1344T89 1362Q68 1362 -1 1336L1 1395Q2 1396 4 1398T9 1401H8Q9 1402 11 1402T15 1405Q17 1406 19 1408Q20 1408 20 1408T21 1408L29 1412Q31 1412 36 1412T44 1410L38 1414Q42 1416 46 1418T54
1422Q58 1424 61 1426L79 1433Q84 1434 87 1435T90 1436Q92 1436 93 1437H92L96 1439Q98 1440 99 1440T103 1442H101Q102 1443 103 1444T106 1446H108Q121 1450 126 1452T138 1457H136Q138 1459 140 1460T144 1463Q146 1464 151 1466T162 1470L179 1476Q183 1478
187 1480T201 1485H202Q203 1485 204 1485T208 1486V1490Q215 1491 219 1492T221 1493L231 1498L239 1500H237L252 1505Q254 1505 257 1506T263 1509Q269 1512 279 1516T301 1525T322 1534T338 1541V1490Q323 1482 317 1469T310 1439L307 779L314 772Q328 787 336
796Q342 804 342 805T326 794Q334 802 342 811T359 829Q361 831 362 833T369 842L372 845V844Q410 888 437 917T484 963Q513 987 544 1007T607 1043T668 1067T723 1076Q786 1076 841 1045T932 967Q948 939 962 907T986 841T1001 774T1007 712Z" />
<glyph unicode="c" glyph-name="c" horiz-adv-x="917" d="M844 373Q792 314 737 264T626 176T518 118T418 97Q336 97 266 132T141 234Q93 300 68 374T43 530Q43 637 76 730T184 911Q258 993 347 1035T540 1077Q570 1077 605 1073T676 1060T748 1039T816 1012V740H732Q729
797 710 846T658 929Q625 965 580 984T484 1004Q414 1004 360 973T263 878V879Q234 825 216 762T198 628Q198 552 218 486T267 368Q311 314 369 279T498 244Q630 244 844 464V373Z" />
<glyph unicode="d" glyph-name="d" horiz-adv-x="1067" d="M750 766Q750 795 750 823T744 879Q675 930 607 961T477 993Q409 993 359 956T266 843Q205 726 205 573Q205 513 218 458T255 358Q286 303 328 273T427 243Q497 243 558 293T666 437Q708 516 729 598T750
766ZM1049 208Q1037 198 1024 194Q1024 194 1020 192L1016 190Q1015 189 1014 189T1011 187Q1007 185 1006 184L1005 183V184L1001 180L991 182Q967 170 964 169L965 170L953 164Q945 162 940 160T934 157Q931 155 923 154T910 153L917 150Q916 149 916 149T914
148Q911 145 907 145Q899 140 882 134H883Q878 132 874 131T869 129H867V128L864 127V129H863Q864 128 860 126Q859 125 859 125T857 124Q856 123 855 123Q851 121 846 121Q838 116 831 116Q821 111 820 111L822 112Q814 108 814 108T815 108L817 109Q814 106 809
103T798 102Q796 101 794 100T790 98H740V407Q738 405 738 403T736 400L720 384L687 345Q668 322 651 301T618 262T593 232T577 215Q516 156 457 127T334 97Q274 97 219 131T124 218Q107 249 93 284T67 354T50 425T43 493Q43 590 81 690T187 880Q265 971 356 1024T542
1077Q580 1077 631 1066T740 1031V1285Q740 1325 725 1343T678 1361Q653 1361 589 1335V1408Q600 1408 605 1409T613 1413Q617 1415 620 1417T622 1418Q625 1421 627 1421Q638 1425 641 1426T646 1428L658 1432L664 1436Q665 1436 666 1436T669 1437L670 1438Q675
1440 681 1442T692 1446Q698 1449 705 1451Q731 1461 753 1469T800 1488Q807 1488 809 1490L819 1495L827 1497L841 1503V1502Q842 1502 844 1503T849 1505Q854 1505 857 1506Q878 1512 886 1515T900 1520Q902 1521 903 1521T906 1522Q913 1524 915 1526Q916 1526
917 1526T920 1527Q921 1527 928 1531T943 1542V1489Q923 1479 913 1462T903 1424V318Q903 278 917 260T964 241Q973 241 995 247T1049 266V208Z" />
<glyph unicode="e" glyph-name="e" horiz-adv-x="896" d="M652 767Q644 810 628 853T591 925Q561 957 522 978T438 999Q394 999 352 978T275 926Q252 897 233 854T202 767H652ZM858 378Q806 320 749 269T635 180T522 119T421 97Q344 97 273 135T145 240Q99 306
71 382T42 536Q42 578 52 625T81 720T121 814T168 900Q200 936 239 968T321 1023T410 1061T499 1075Q568 1075 631 1046T741 964Q781 917 802 848T828 703H190V700Q190 699 190 699T189 697V686Q188 678 188 667T188 652Q188 617 194 581T211 509T235 440T263 380V381Q286
354 314 330T373 288T437 260T506 250Q582 250 670 305T858 470V378Z" />
<glyph unicode="f" glyph-name="f" horiz-adv-x="640" d="M700 1210H614Q609 1304 582 1348T497 1393Q463 1393 434 1370T386 1309H387Q371 1272 363 1232T354 1150Q354 972 517 972H607V914H365V338Q365 262 399 228T515 189V126H48V189Q129 195 165 229T201
338V914H48V972H99Q116 972 132 982T162 1010T189 1050T211 1098V1097Q221 1131 236 1168T269 1240T305 1307T340 1361Q394 1421 459 1459T590 1497Q606 1497 636 1491T700 1474V1210Z" />
<glyph unicode="g" glyph-name="g" horiz-adv-x="1024" d="M657 770Q657 812 642 853T606 927Q579 960 543 981T464 1002Q420 1002 381 984T309 930Q289 900 275 855T261 767Q261 722 273 680T306 608Q338 573 376 552T455 530Q497 530 535 553T602 609Q623 639
640 682T657 770ZM852 -17Q852 12 832 37T771 79Q765 81 751 86T717 99Q703 104 685 111T646 126Q641 128 636 129T627 133L517 179Q315 125 217 63T119 -74Q119 -117 153 -155T241 -215Q286 -232 339 -241T445 -251Q510 -251 578 -236T702 -200Q735 -185 762 -164T810
-119T841 -69T852 -17ZM1004 40Q1004 -46 941 -119T768 -244Q677 -286 580 -306T383 -326Q351 -326 316 -323T247 -313T182 -298T125 -281Q55 -248 11 -201T-33 -91Q-33 -31 16 22T159 121Q214 145 288 170T441 215Q411 241 395 268T379 319Q379 347 407 388T493
482Q492 482 492 482T489 481Q488 481 487 481T485 480Q414 468 377 468Q316 468 267 483T175 530Q133 565 111 611T88 711Q88 783 124 848T236 971Q306 1025 378 1050T529 1075Q543 1075 564 1072T609 1062T660 1046T713 1027Q779 1002 834 986T924 970H999V913H807Q817
887 821 863T825 821Q825 783 808 740T762 654Q742 631 710 597T635 528Q611 506 591 485T555 446T531 413T522 390Q522 380 537 367T577 338T636 308T707 278Q732 269 759 259T812 239T860 218T897 199Q949 164 976 123T1004 40Z" />
<glyph unicode="h" glyph-name="h" horiz-adv-x="1131" d="M1088 126H734V185Q757 188 766 201T776 235V825Q776 890 752 919T675 948Q642 948 609 932T545 887T486 818T435 732H436Q417 690 402 645T375 554T357 464T351 381Q351 282 378 236T467 189H511V126H51V189Q129
195 164 229T199 338V1316Q199 1342 185 1353T140 1365Q126 1365 103 1359T51 1341V1401Q53 1402 58 1405T67 1411Q78 1416 82 1417T88 1420Q103 1426 117 1432T142 1443L156 1448V1447Q162 1450 168 1453T182 1460Q207 1469 218 1475Q236 1483 256 1491L271 1497Q276
1497 278 1498Q279 1498 279 1498T280 1499Q288 1503 292 1504T300 1505H305Q307 1505 310 1508Q312 1508 315 1508T320 1509L322 1511Q323 1511 324 1511T332 1514L337 1505Q342 1510 345 1515T343 1518H341Q342 1519 343 1519T345 1521Q353 1524 366 1529T400
1546V1491Q382 1481 372 1464T361 1423V759Q482 922 582 999T774 1077Q858 1077 898 1022T938 852V338Q938 261 972 227T1088 189V126Z" />
<glyph unicode="i" glyph-name="i" horiz-adv-x="555" d="M122 1000Q118 998 115 996Q117 998 122 1000ZM388 1386Q388 1344 360 1316T288 1287Q243 1287 216 1315T189 1386Q189 1429 216 1459T286 1490Q332 1490 360 1461T388 1386ZM521 126H55V189Q136 195 171
229T207 338V878Q207 907 192 920T143 933Q117 933 94 925V926Q90 924 81 920T57 910V930Q57 931 57 932T56 937V940Q55 945 55 954T55 971Q64 975 67 976T71 978H70Q75 983 83 984Q84 985 84 985T88 986V985Q99 992 105 992Q107 993 110 994T115 996Q113 994 115
993T125 991V1001Q126 1001 126 1001T128 1002Q130 1002 133 1003T141 1007Q156 1012 188 1027L216 1038Q218 1039 222 1040T231 1041L232 1037Q237 1042 238 1044T239 1048Q241 1048 244 1048T249 1049Q250 1049 250 1049T252 1050L254 1040Q261 1042 266 1045Q265
1048 264 1052T261 1058Q263 1059 270 1061T280 1064L279 1063Q267 1057 267 1056T282 1055L280 1063L303 1075Q302 1074 309 1076Q312 1077 316 1077H369V338Q369 262 403 228T521 189V126Z" />
<glyph unicode="j" glyph-name="j" horiz-adv-x="533" d="M382 1386Q382 1344 354 1316T281 1287Q236 1287 209 1315T181 1386Q181 1429 208 1459T279 1489Q326 1489 354 1461T382 1386ZM362 212Q362 34 256 -132Q229 -173 196 -208T127 -270T53 -311T-20 -327Q-43
-327 -74 -321T-134 -302V-21H-52Q-50 -61 -43 -97T-25 -156L-26 -155Q11 -219 68 -219Q97 -219 123 -197T169 -138H168Q181 -103 188 -68T196 3V842Q196 888 182 908T135 929Q124 929 101 923T48 904V961Q50 962 52 964T58 969Q62 972 66 974L79 979L78 978Q84
981 85 981Q87 982 90 984Q93 986 101 988Q106 990 115 995T130 1002Q133 1003 133 1003T132 1001Q135 1002 139 1004Q141 1005 142 1005Q144 1006 147 1006T155 1007L159 1011L165 1015Q167 1017 169 1018T174 1020H173Q175 1022 178 1023T186 1026Q193 1029 201
1032T218 1040L248 1052Q250 1053 253 1053T258 1055L270 1059Q276 1060 280 1061T288 1065L301 1070H302Q306 1072 309 1075H313Q324 1079 328 1075H362V212Z" />
<glyph unicode="k" glyph-name="k" horiz-adv-x="1024" d="M514 669H515H514ZM734 134Q732 137 729 140T723 146Q722 147 723 146T724 146Q721 150 718 153T713 159L697 179Q668 213 639 250T584 322Q576 333 567 344T549 363Q541 372 532 384T516 405Q514 407
513 409T509 414Q507 416 506 418T502 423Q499 427 495 432T488 441Q465 474 436 511T379 580Q377 582 376 583T368 592Q368 591 361 600V561Q361 560 361 559T360 555V315Q354 193 515 189V126H48V189Q130 195 164 229T198 338V1264Q198 1316 184 1339T136 1362Q125
1362 102 1358T48 1345V1405Q79 1416 102 1425T143 1443L157 1449L166 1452Q176 1456 184 1459T198 1466Q206 1469 207 1469T217 1474L232 1479H233Q234 1479 235 1480L233 1478L243 1483Q260 1491 265 1493T272 1496V1495Q276 1497 277 1497T281 1498L282 1499Q283
1499 284 1500L286 1502Q288 1502 290 1502T294 1503Q295 1503 299 1505H306Q307 1505 308 1505T310 1506Q312 1507 314 1507T314 1506Q319 1509 324 1510T334 1512L333 1516L344 1522L347 1523Q355 1527 364 1530L373 1533H386Q387 1533 388 1533T390 1534H404V1492Q385
1483 373 1469T361 1437V637Q387 657 413 679T469 725Q497 748 525 771T580 815H579Q609 845 629 877T649 932Q649 960 621 974T532 990V1050H1010V992Q977 989 940 977T864 944T785 896T706 838H707Q704 835 695 828T677 814Q672 810 667 806T656 797Q619 766
583 735T511 673L514 669Q513 670 512 670T513 670Q516 666 520 662Q538 641 560 613T600 562Q612 545 623 530T646 500Q648 498 648 496T651 491Q652 488 654 485Q656 489 656 489Q664 478 677 462T698 435Q795 315 880 255T1052 189V126H741Q739 127 739 128T737
130Q731 134 729 136L734 134Z" />
<glyph unicode="l" glyph-name="l" horiz-adv-x="555" d="M522 126H55V189Q136 195 172 229T208 338V1280Q208 1324 192 1343T140 1362Q126 1362 103 1358T55 1346V1405Q87 1418 128 1433T206 1463L205 1462Q209 1464 214 1469L258 1488Q269 1493 283 1498T312
1506H311Q313 1507 316 1507T321 1509Q325 1509 326 1510Q328 1511 330 1512T335 1514Q355 1521 363 1526Q362 1526 363 1527Q364 1527 366 1527T370 1528Q371 1528 371 1528Q381 1535 384 1535Q389 1537 395 1539T407 1545Q435 1555 445 1555Q459 1555 453 1548T412
1524V1495Q370 1473 370 1424V338Q370 262 404 228T522 189V126Z" />
<glyph unicode="m" glyph-name="m" horiz-adv-x="1643" d="M1608 126H1247V189Q1270 191 1280 202T1291 228V794Q1291 875 1267 911T1191 948Q1159 948 1129 933T1069 890T1014 823T965 737H966Q934 655 916 566T898 400Q898 346 903 308T919 249V250Q936 225
971 208T1058 189V126H705V189Q746 193 746 220V826Q746 850 740 873T726 911Q712 927 693 936T650 946Q620 946 589 930T528 884T472 817T426 735Q412 698 400 654T377 565T360 477T354 396Q354 342 360 305T378 247V248Q397 221 431 206T514 189V126H51V189Q132
195 165 229T199 338V854Q199 895 186 913T144 931Q133 931 108 925T51 908V966L68 974Q79 979 91 985T109 994Q112 995 118 997Q121 998 125 998Q130 998 143 1006Q146 1007 152 1007L162 1013Q170 1017 176 1020T179 1022Q188 1027 194 1030T209 1036Q258 1055
311 1075H365V787Q430 869 464 912T511 968Q568 1024 624 1050T743 1076Q909 1076 909 836V804Q909 802 909 801T908 797Q947 846 978 881T1033 940Q1044 953 1044 954L1059 969Q1116 1020 1175 1048T1286 1077Q1321 1077 1355 1062T1413 1022Q1436 994 1446 961T1457
891V338Q1457 262 1490 228T1608 189V126Z" />
<glyph unicode="n" glyph-name="n" horiz-adv-x="1131" d="M226 1042Q224 1042 224 1042H223H226ZM1088 126H735V189Q757 191 766 202T775 230V841Q775 898 753 923T683 949Q648 949 614 933T549 887T489 818T437 731Q419 689 404 643T377 550T359 458T353 373Q353
325 359 289T375 234V235Q391 217 428 204T513 189V126H53V189Q132 195 167 229T202 338V841Q202 890 188 911T143 933Q136 933 112 927T53 906V971Q58 973 60 973T62 974Q62 974 62 974Q62 974 64 975Q60 976 64 978T87 984Q88 984 89 984T91 985H90Q94 987 98
987Q105 991 108 993T113 997V996Q127 1003 132 1005T141 1009Q143 1010 146 1011T151 1013V1012Q156 1014 158 1015T162 1017Q167 1019 170 1020T179 1024Q181 1025 184 1025T189 1027Q192 1028 194 1029Q200 1035 207 1033Q207 1033 211 1035Q212 1035 214 1037H212Q214
1039 220 1039L218 1038Q222 1040 225 1041T227 1043L226 1042Q227 1043 227 1043T228 1044L236 1048Q241 1050 247 1052L255 1054L254 1053L276 1064L281 1066H279Q285 1068 289 1069T298 1073V1072L308 1076Q309 1076 310 1076T314 1077H318H362V766Q363 768
365 770Q367 772 368 774Q370 776 372 779T377 785L390 799V798Q431 850 467 894T527 959Q588 1014 650 1045T768 1077Q855 1077 896 1023T938 854V338Q938 262 972 228T1088 189V126Z" />
<glyph unicode="o" glyph-name="o" horiz-adv-x="1003" d="M813 525Q813 587 800 641T762 756H763Q737 810 699 856T610 933Q577 956 537 970T457 984Q429 984 400 976T343 953T291 921T249 885Q223 840 205 780T186 652Q186 614 194 575T215 496T247 421T286
354Q312 322 343 295T408 247T480 214T556 202Q581 202 608 210T661 233T710 267T750 308Q776 350 794 408T813 525ZM960 640Q960 534 923 437T819 265Q743 187 649 142T452 97Q357 97 279 130T144 223Q99 284 70 364T40 533Q40 740 181 910Q256 991 347 1033T542
1075Q642 1075 719 1045T854 951Q960 832 960 640Z" />
<glyph unicode="p" glyph-name="p" horiz-adv-x="1088" d="M883 614Q883 640 879 669T869 726T855 781T838 829Q783 948 673 948Q598 948 534 896T422 747Q402 707 386 663T359 575T342 487T335 403Q335 381 337 351T344 284Q417 229 475 201T586 172Q655 172
714 213T816 327V326Q847 385 865 457T883 614ZM1043 702Q1043 596 1008 494T900 299Q825 203 732 150T535 97Q496 97 447 107T344 138V-79Q344 -160 381 -195T499 -231V-294H35V-231Q115 -226 149 -191T183 -79V864Q183 900 172 916T134 932Q127 932 99 925T35
907V969Q51 975 55 977T62 981Q62 980 63 981Q65 982 67 983T72 985Q86 991 100 996T128 1006L132 1008H133Q135 1008 137 1009H136Q138 1010 140 1011T144 1013Q147 1016 149 1016Q143 1013 143 1011T155 1008V1018Q156 1018 161 1020T169 1024L172 1025H170Q178
1028 180 1029T187 1032Q188 1032 189 1032T192 1033L194 1024H198Q198 1027 197 1031T196 1038Q201 1038 203 1039T208 1041Q212 1043 214 1044T215 1045Q219 1047 222 1047T225 1048Q237 1050 248 1056L258 1061H257H259H258H259L261 1062Q262 1062 266 1064Q268
1066 271 1067T277 1069Q308 1079 326 1083T352 1088T357 1083T344 1071V767Q401 840 440 888T505 960Q565 1017 627 1047T751 1077Q781 1077 811 1068T869 1042T921 1005T966 959Q1001 902 1022 835T1043 702Z" />
<glyph unicode="q" glyph-name="q" horiz-adv-x="1067" d="M750 762Q750 788 748 819T737 892Q671 924 611 942T490 961Q422 961 368 924T273 820V821Q248 770 230 699T212 553Q212 491 222 442T254 349Q280 294 319 267T417 240Q495 240 557 288T666 430Q708
505 729 589T750 762ZM1051 -296H587V-234Q665 -229 701 -194T738 -82V391Q681 331 634 284T555 211Q526 187 494 167T428 131T364 106T307 97Q242 97 193 131T105 224Q73 278 58 339T43 469Q43 544 66 622T133 775Q175 846 234 902T357 991Q417 1019 493 1032T644
1046Q645 1046 646 1046T648 1045H742Q802 1044 842 1061T903 1103H965Q931 1040 917 967T903 801V-82Q903 -161 936 -196T1051 -234V-296Z" />
<glyph unicode="r" glyph-name="r" horiz-adv-x="811" d="M789 741H707Q702 921 612 921Q587 921 560 902T507 851T456 782T413 704Q387 625 371 541T355 381Q355 328 368 287T402 224Q423 210 468 200T575 189V126H49V189Q129 195 164 229T199 338V849Q199 892
186 911T142 931Q128 931 107 926T49 910V969Q77 982 111 995T176 1021Q182 1023 186 1025Q203 1033 230 1043T277 1062L276 1061Q279 1063 283 1064T293 1068Q294 1068 294 1068T297 1068Q303 1070 305 1072Q307 1074 310 1074T315 1077H364V769Q559 1075 706
1075Q721 1075 743 1072T789 1059V741Z" />
<glyph unicode="s" glyph-name="s" horiz-adv-x="747" d="M699 411Q699 346 668 290T581 189Q464 97 328 97Q278 97 212 113T77 159V446H158Q163 389 179 340T216 258Q249 220 291 197T384 174Q419 174 447 187T502 223Q527 245 540 272T553 334Q553 364 535 396T487
457Q468 476 447 492T406 522Q401 526 396 529T386 536L350 560H351Q349 561 349 561T346 563Q341 564 340 566L339 567H340Q316 584 295 597T266 616Q260 618 256 622Q253 624 249 625T246 626Q241 628 240 629T238 632H239Q203 653 176 680T137 727Q123 750 116
774T108 821Q108 884 136 930T219 1014Q270 1047 324 1062T441 1077Q482 1077 535 1067T640 1036V765H558Q557 787 552 810T540 855T523 896T505 930Q478 961 440 984T362 1007Q339 1007 319 999T285 976T262 941T253 898Q253 836 318 780Q332 766 360 746T425
702L458 681Q473 671 489 662T519 644Q536 633 552 624T580 606H579Q592 599 597 596T605 590Q647 549 673 504T699 411Z" />
<glyph unicode="t" glyph-name="t" horiz-adv-x="597" d="M584 916H341V286Q341 257 351 244T381 231Q405 231 445 253T550 326V280L551 277V254Q510 219 471 191T396 141T330 109T276 97Q178 97 178 249V916H24V972Q109 976 148 1011T187 1121V1269Q198 1278
205 1282T217 1287Q219 1288 219 1288T222 1289Q227 1291 233 1295T244 1301Q247 1302 251 1303T261 1307V1306Q263 1307 265 1307T269 1309H270L274 1313Q276 1313 277 1314L279 1316Q280 1317 281 1317T284 1318Q291 1321 301 1325T318 1332Q326 1335 333 1338T347
1344Q349 1345 350 1345Q352 1345 353 1346Q363 1350 360 1350Q369 1354 378 1358T396 1364Q407 1369 417 1372T431 1376Q442 1376 436 1370T400 1348V1300Q371 1287 356 1252T340 1161Q340 1097 356 1055T401 992H400Q415 984 439 978T497 972H584V916Z" />
<glyph unicode="u" glyph-name="u" horiz-adv-x="1131" d="M1087 211Q1079 208 1072 206T1064 203L1059 199Q1030 188 1010 179T984 167H985Q984 166 984 166T982 165Q979 162 974 161T963 159L953 154Q949 150 945 150L943 149Q940 146 938 146Q922 138 903 130T866
115Q863 114 859 112T851 109T845 107T846 107Q840 105 839 105L840 106L832 102L823 99H825Q823 97 818 97Q816 95 811 95Q809 94 805 94H756V410Q699 338 659 289T591 215Q530 158 470 128T346 97Q261 97 220 158T178 339V879Q178 959 91 959Q89 959 87 959T79
958Q77 958 74 958T68 957Q66 957 62 956Q61 956 60 956T57 955Q57 954 56 954H53H32V1014Q47 1014 52 1016Q53 1016 55 1016T60 1017Q64 1018 68 1019T76 1021Q79 1021 87 1023L103 1025Q105 1025 107 1025T114 1028L117 1029L229 1050Q229 1050 235 1052H243L247
1053Q249 1053 254 1054L259 1055Q260 1055 270 1057Q271 1057 272 1057T276 1058L279 1059Q283 1059 289 1061Q294 1061 305 1065Q310 1065 313 1065T320 1067H325Q326 1067 326 1067T328 1068L330 1069Q346 1071 357 1072T380 1076V1027Q363 1016 353 999T342
959V348Q342 284 363 255T434 225Q468 225 501 240T566 284T625 352T677 440Q696 483 712 529T741 620T759 709T766 789Q766 879 742 920T664 961Q657 961 647 960T604 953V1011Q613 1013 627 1016T651 1021Q654 1021 658 1020T664 1016L663 1023Q664 1023 665
1023T667 1024L665 1023Q666 1023 668 1024T673 1026Q674 1026 676 1026T681 1027Q685 1027 687 1028L704 1031Q705 1032 706 1032Q709 1032 711 1033H717Q719 1033 719 1033T722 1034Q727 1034 729 1035Q731 1035 731 1035T733 1036Q738 1037 746 1038T750 1039L800
1048Q823 1052 845 1055T890 1064Q895 1067 901 1067T912 1068Q913 1068 913 1068T915 1069Q916 1069 917 1069T919 1070Q920 1070 924 1072Q925 1072 931 1074Q939 1074 948 1067L960 1080V1032Q943 1023 931 1004T918 959V324Q918 279 932 259T978 238Q1012 238
1087 272V211Z" />
<glyph unicode="v" glyph-name="v" horiz-adv-x="981" d="M559 222V223V222ZM558 223L559 224V223H558ZM994 991Q966 985 938 963T882 907T829 832T781 744L778 738Q777 736 775 731T771 718Q768 711 765 705T760 693Q759 691 758 687T755 681Q754 678 754 675T751
670Q746 659 743 651T734 632Q732 630 731 626T727 619V620Q726 618 726 617T725 614H726Q723 606 720 597T714 581Q713 579 712 575T708 566Q705 559 701 551T692 536Q689 533 689 530Q692 536 692 534T689 528Q683 519 685 517Q683 510 680 506L677 500L674 492Q667
480 663 469V466Q658 455 653 441T642 416Q637 403 631 390T619 364Q613 352 607 339T596 313Q588 296 583 280Q581 275 577 264T570 245Q570 246 559 224L558 223Q554 215 554 213Q551 208 550 201Q545 189 542 181T533 158Q531 153 527 145T520 132Q520 131 519
130T518 127Q517 123 514 117T508 105H509Q508 103 506 99T503 92Q500 92 498 89T493 80H436Q418 139 396 201T352 325Q348 336 344 347T336 369Q325 400 313 433T291 497Q288 507 285 518T277 540Q270 557 264 576T251 612Q249 616 248 620T245 629Q237 646 230
665T216 704Q214 711 211 718T206 733V732Q204 737 202 743T198 754Q196 759 195 763T191 772Q186 785 181 797T173 818Q144 894 103 938T10 988V1050H342V988Q321 987 313 980T304 958Q304 937 314 916L520 343Q522 345 522 345T523 348L528 358H527L536 378Q538
382 540 387T549 406H548Q550 410 550 413T552 418Q553 421 554 424T557 430L564 444H563L569 462Q573 473 575 484Q586 508 597 535T619 591Q627 612 635 631Q648 663 660 698T681 765T696 827T702 876Q702 985 558 988V1050H994V991Z" />
<glyph unicode="w" glyph-name="w" horiz-adv-x="1536" d="M552 381Q551 380 551 379Q551 380 552 381ZM643 394V395V394ZM281 566V563V566ZM1550 990Q1505 980 1468 949T1404 876Q1388 850 1366 807T1321 717Q1313 703 1311 696T1307 683Q1306 683 1306 682Q1306
681 1306 681T1305 679V674L1296 657L1297 658V656Q1297 650 1292 645Q1291 644 1291 644V639Q1291 634 1290 632V634L1274 602Q1273 601 1273 599Q1273 593 1269 584Q1268 583 1268 582Q1267 581 1267 580V579L1264 570Q1246 525 1228 484T1190 397Q1188 392 1186
388T1182 378H1183Q1175 362 1169 346T1155 309L1146 291V287Q1146 283 1143 277Q1143 272 1141 270V272Q1139 270 1138 268T1137 261Q1136 259 1134 253T1128 240V241Q1127 238 1125 234T1122 227L1115 209Q1113 207 1111 204Q1109 200 1109 200Q1108 199 1108
198L1102 180L1095 166H1096Q1094 161 1093 158T1089 149Q1087 145 1085 140T1082 132Q1081 130 1080 128T1078 123Q1077 121 1077 119T1075 115Q1072 108 1068 97T1061 80H992L779 681Q777 679 776 675T774 670Q766 656 755 635T738 601Q736 599 735 596T732 590L730
586L725 576Q724 574 722 568T718 560L710 543L712 545Q711 538 708 532T701 523Q700 521 700 520T699 518H700L691 498Q690 496 689 494T687 490V491Q685 489 685 488Q684 489 679 487Q676 486 674 485L682 479L679 473Q678 472 678 467Q673 462 672 459Q670 456
667 450T660 438L661 439Q659 436 658 433T655 427Q657 429 653 419L651 413Q651 411 649 407T644 398Q644 397 643 396L644 398Q643 396 643 396Q642 395 643 395Q642 393 642 392T639 388L640 389Q638 382 635 374Q634 373 633 371Q631 367 631 365Q607 311 583
253T535 134Q530 123 528 116T521 98L512 80H443Q438 93 434 110T425 141Q423 148 422 154T418 166V165Q416 169 416 172T413 179Q411 182 411 185T408 194V193Q406 200 405 206T401 218V217Q399 221 399 225T396 233L397 232Q392 240 390 247T386 260Q384 263
383 267T380 273Q379 274 379 277Q376 281 376 284Q370 300 364 317T352 352Q346 367 340 384T328 418Q322 435 316 452T304 488L301 497Q299 503 296 510T290 525H291Q289 530 288 533T286 541Q285 546 284 551T281 563Q280 564 280 564T279 568Q277 570 277 576Q276
578 275 581T273 587Q273 592 271 596V594Q269 596 269 602Q269 604 265 612Q263 616 262 620L250 649H251L242 667L240 672Q238 676 238 680T235 689H236Q235 691 235 691T234 694V692Q231 693 231 700Q229 705 227 710T223 723V722L220 731Q219 733 218 737Q216
743 214 747Q206 765 199 782T186 812T177 834T176 845Q168 865 162 881T153 902Q132 940 101 962T26 988V1050H358V992Q318 986 318 963Q318 950 326 931L529 328L530 330Q531 332 532 337T537 350L540 354L547 368V371L548 372Q549 373 551 377H550L551 379Q553
377 570 400L562 405Q563 408 564 411T567 422Q569 429 570 434T574 445Q591 483 606 518T636 588Q671 672 689 743T708 874Q708 925 672 954T566 988V1050H900V988Q860 985 860 965Q860 959 862 949T869 928V929Q922 778 972 635T1076 341Q1082 354 1087 366T1098
393Q1102 401 1105 409T1112 426Q1116 434 1119 441T1125 457Q1126 459 1126 461T1128 466Q1129 468 1130 470T1132 475L1131 474Q1132 476 1134 482T1139 492H1138Q1139 494 1140 496T1145 504V506Q1145 509 1146 511Q1146 515 1151 523H1150L1151 525Q1152 527
1153 529T1155 534Q1156 537 1157 539Q1158 540 1159 544Q1160 546 1161 550T1164 559Q1164 562 1165 563Q1165 564 1165 564T1167 565Q1167 566 1170 571Q1171 573 1171 575T1173 579Q1173 580 1174 582T1174 585Q1177 592 1181 602T1188 618Q1221 694 1238 759T1256
878Q1256 986 1112 988V1050H1550V990Z" />
<glyph unicode="x" glyph-name="x" horiz-adv-x="1067" d="M1049 126H683V189Q703 190 711 194T719 206Q719 217 704 235L506 521Q440 437 401 374T362 268Q362 231 393 211T483 189V126H32V186Q64 192 101 212T177 263T257 333T335 418V417Q337 422 338 423T340
425Q342 427 342 428T345 431V430Q350 436 354 441T364 453Q372 462 378 471T393 488Q414 511 432 533T467 581Q465 584 464 587T460 594H461H460Q458 596 456 600Q455 602 455 603Q447 616 438 627T419 649Q390 688 361 729T307 805Q280 839 249 871T187 928T125
970T68 992V1050H447V988Q407 984 407 966Q407 960 409 954T415 942V943Q432 922 448 897T479 848Q481 846 482 844T485 839Q487 837 488 835T492 830Q504 813 517 795T541 759Q549 746 557 734T575 708Q635 779 665 831T696 924Q696 983 598 988V1050H1013V988Q958
981 901 946T786 856Q781 851 777 846T767 834Q737 799 698 754T617 647Q618 646 616 647T615 646Q616 645 616 644T619 641Q629 626 638 613T658 585Q662 578 666 572T675 561L680 552H681L683 548Q694 534 698 528T704 517V518Q720 501 734 482T760 443Q771 426
784 408T809 374Q868 292 930 244T1049 185V126Z" />
<glyph unicode="y" glyph-name="y" horiz-adv-x="960" d="M978 991Q949 987 923 975T880 948Q871 938 861 920T839 880T816 834T794 786Q781 754 767 718T737 643T709 568T683 497Q673 477 665 456T649 414L634 375L622 349Q612 325 601 296T579 238T558 181T541
131Q540 128 539 126Q537 120 537 119Q535 114 533 110T531 108Q531 107 531 107T530 105Q528 103 530 103L526 90Q523 82 520 76T514 63Q514 62 513 61Q513 61 509 53Q507 48 505 43T501 31Q500 31 500 30Q499 29 499 27T497 23H498Q498 22 495 16H496Q495 14
494 11T492 5Q488 -5 486 -8Q484 -13 482 -20T478 -30L475 -28Q475 -35 473 -41Q472 -43 471 -46T468 -53Q466 -57 465 -61Q463 -65 462 -68Q462 -68 461 -70Q461 -71 461 -71T460 -73L458 -77Q457 -81 452 -87Q453 -87 453 -91Q433 -135 402 -174T330 -243T243
-294T147 -324L130 -307H132Q130 -306 127 -302T120 -292Q121 -293 119 -288T114 -281L110 -279Q109 -278 108 -277T104 -267L105 -268Q95 -256 85 -244T63 -220V-221Q61 -219 59 -217T55 -213H56Q54 -211 51 -208T41 -196L42 -197Q45 -199 45 -188H36L37 -190Q34
-189 30 -185T25 -177Q21 -175 20 -174T18 -171L17 -169Q16 -168 15 -166T12 -161V-163Q9 -160 9 -159V-158Q5 -156 3 -152L2 -151Q-1 -148 -3 -145Q-7 -143 -8 -140Q-9 -139 -11 -135V-136Q-13 -134 -12 -134L-28 -117L-4 -106Q-4 -105 -3 -104Q-1 -102 1 -101Q2
-101 5 -98L15 -91H18Q20 -91 21 -91T24 -92L21 -87L43 -66Q91 -122 132 -148T218 -174Q264 -174 305 -144T373 -69Q375 -66 381 -49T400 0Q402 3 404 10T408 20H407Q413 36 420 53T435 88V86Q435 88 436 91T439 96Q440 97 440 99Q438 94 438 97T440 102Q442 105
442 108T445 115L449 126V127Q446 130 446 133Q444 139 441 147T435 161Q405 242 372 324T306 489L307 488Q298 501 296 507H297L294 513Q289 523 288 526Q288 527 287 528Q284 535 281 543T274 559L256 613H257Q253 619 250 625T248 631Q246 636 244 642T239 652Q234
661 231 670T224 691Q224 692 223 693T222 695Q220 699 218 704T215 712H216Q212 720 210 724T207 731H208Q207 734 205 738Q201 744 201 746L195 761Q193 767 190 772T185 783L179 797Q165 838 147 873T118 926Q98 950 68 968T-5 988V1050H331V988Q290 983 290
971Q290 962 297 947L539 358L542 365Q542 366 543 368T545 372L544 370Q544 373 547 381V380Q547 385 549 391Q549 394 552 397V395Q553 397 553 398T554 401H553L555 407Q556 409 557 413T560 420V421Q560 421 562 427Q562 429 567 439H566Q569 448 572 457T580
474Q586 489 592 504T604 535V534L605 538Q607 541 610 549T615 561H614Q618 571 621 580T627 598Q658 676 675 750T692 882Q692 934 660 960T549 988V1050H978V991Z" />
<glyph unicode="z" glyph-name="z" horiz-adv-x="917" d="M855 80H800Q794 103 774 114T722 126H59V184L632 988H457Q219 988 201 766H120V1092H182Q185 1050 228 1050H831V992L258 189H457Q610 189 687 252T776 442H855V80Z" />
<glyph unicode="{" glyph-name="braceleft" horiz-adv-x="981" d="M837 -321Q752 -304 686 -271T575 -189Q523 -132 499 -69T475 73Q475 131 499 250Q509 292 513 319T518 359Q518 400 499 439T448 508Q414 542 372 563T282 590V636Q405 660 462 713T519 845Q519
868 515 901T503 966Q491 1023 485 1072T478 1153Q478 1228 503 1294T576 1412Q620 1460 688 1492T837 1542V1490Q792 1483 752 1464T680 1415Q648 1383 633 1348T617 1270Q617 1246 620 1218T631 1158Q631 1154 631 1150T632 1142Q634 1136 634 1129Q636 1115
638 1100T642 1071Q648 1030 652 996T657 946Q657 737 385 617Q519 551 586 466T654 268Q654 240 648 194T631 85Q622 43 618 10T613 -45Q613 -132 667 -187T837 -270V-321Z" />
<glyph unicode="|" glyph-name="bar" horiz-adv-x="1045" d="M584 -294H461V1542H584V-294Z" />
<glyph unicode="}" glyph-name="braceright" horiz-adv-x="981" d="M700 589Q463 534 463 375Q463 354 466 323T478 258Q490 200 497 149T504 72Q504 -9 480 -73T406 -195Q364 -237 297 -270T145 -321V-267Q193 -259 232 -241T302 -193Q364 -128 364 -46Q364 -23
361 6T351 67Q346 101 342 134T333 194T327 244T325 278Q325 384 390 465T592 611Q456 673 392 757T328 955Q328 967 330 987T335 1032T342 1084T350 1136Q358 1176 363 1210T369 1268Q369 1353 315 1408T145 1491V1542Q232 1525 296 1491T406 1410Q457 1357 481
1292T506 1151Q506 1119 501 1077T482 975Q473 937 469 908T464 863Q464 819 482 782T531 711V712Q602 652 700 637V589Z" />
<glyph unicode="~" glyph-name="asciitilde" horiz-adv-x="1365" d="M1218 926Q1215 857 1198 806T1154 713Q1119 668 1071 647T967 626Q950 626 928 629T881 637T830 650T779 666Q778 667 776 668T772 670L773 669Q763 673 757 673L749 678L683 705Q682 705 680
705T678 707Q674 709 671 711Q672 711 664 713Q659 715 655 716T646 720Q641 722 638 723T630 727Q624 727 623 730Q621 732 621 733Q620 733 620 732T616 734L615 735Q613 733 600 741H601H600Q599 741 599 742Q599 741 600 741Q597 741 594 744Q523 770 465 787T378
804Q311 804 266 761T202 628H148Q153 689 167 742T209 831Q244 877 288 902T389 928Q411 928 452 917T544 889T653 849T767 803Q801 791 834 780T896 760T948 746T985 740Q1020 740 1050 754T1104 791V790Q1124 811 1139 844T1160 926H1218Z" />
<glyph unicode="" glyph-name="delete" horiz-adv-x="1600" d="M1520 126H1145V722H1234V212H1520V126ZM487 429Q487 508 461 558T390 631V630Q374 635 350 637T296 640H176V212H298Q343 212 377 221T431 249L430 248Q456 277 471 323T487 429ZM1085 126H637V722H1071V640H730V476H1048V393H730V212H1085V126ZM582
427Q582 369 566 316T522 221Q501 196 467 173T397 136Q363 126 304 126H87V722H297Q329 722 355 720T402 714Q451 698 492 661T556 574Q567 539 574 501T582 427Z" />
</font>
</defs>
</svg>
