<?xml version="1.0" standalone="no"?> <!DOCTYPE svg PUBLIC "-//W3C//DTD SVG 1.0//EN" "http://www.w3.org/TR/2001/REC-SVG-20010904/DTD/svg10.dtd" > <svg xmlns="http://www.w3.org/2000/svg" width="100%" height="100%">
<defs >
<font id="gessuniquelight" horiz-adv-x="1142" ><font-face
    font-family="GE SS Unique Light"
    units-per-em="2048"
    panose-1="2 10 5 3 2 1 2 2 2 4"
    ascent="1692"
    descent="-491"
    alphabetic="0" />
<missing-glyph horiz-adv-x="1024" d="M129 0H897V1536H129V0ZM256 129V1409H768V129H256Z" />
<glyph unicode=" " glyph-name="space" horiz-adv-x="485" />
<glyph unicode="!" glyph-name="exclam" horiz-adv-x="716" d="M410 315H307L283 1329H434L410 315ZM285 158H432V0H285V158Z" />
<glyph unicode="&quot;" glyph-name="quotedbl" horiz-adv-x="661" d="M209 913V1329H303V913H209ZM383 913V1329H477V913H383Z" />
<glyph unicode="$" glyph-name="dollar" horiz-adv-x="1024" d="M555 569V82Q660 90 739 154T819 324Q819 355 811 382T792 428T759 467T721 497T674 522T628 542T578 561L555 569ZM555 -27V-125H463V-27Q385 -25 317 -4T195 58T109 168T78 324H207Q207 102 463
82V590Q452 595 405 611T325 639T247 681T172 743T122 829T100 948Q100 1042 154 1125T292 1255T463 1303V1391H555V1303Q647 1303 728 1267T864 1155T926 979H797Q796 1036 775 1078T717 1145T640 1181T555 1194V688Q713 639 776 605Q924 525 944 374Q948 348
948 319Q948 234 914 166T824 57T698 -5T555 -27ZM463 717V1192Q368 1190 299 1124T229 950Q229 899 248 859T304 792T376 749T463 717Z" />
<glyph unicode="&apos;" glyph-name="quotesingle" horiz-adv-x="512" d="M209 913V1329H303V913H209Z" />
<glyph unicode="(" glyph-name="parenleft" horiz-adv-x="512" d="M430 -176H338Q333 -163 304 -89T268 7T236 95T203 192T179 282T156 382T145 474T139 575Q139 618 142 660T154 750T169 831T192 920T216 1000T246 1087T275 1165T308 1251T338 1329H430Q268 910
268 575Q268 243 430 -176Z" />
<glyph unicode=")" glyph-name="parenright" horiz-adv-x="512" d="M174 -176H82Q244 243 244 575Q244 910 82 1329H174Q176 1323 204 1251T237 1166T265 1088T295 1000T319 921T342 832T357 751T370 660T373 575Q373 511 363 440T344 321T306 186T267 71T218
-60T174 -176Z" />
<glyph unicode="*" glyph-name="at" horiz-adv-x="927" d="M850 264L516 416L850 567L788 674L492 461L526 823H401L438 461L139 674L78 567L412 416L78 264L139 158L438 367L401 6H526L492 367L788 158L850 264Z" />
<glyph unicode="+" glyph-name="plus" horiz-adv-x="1214" d="M553 518V924H664V518H1067V408H664V0H553V408H147V518H553Z" />
<glyph unicode="-" glyph-name="hyphen" horiz-adv-x="512" d="M25 436V547H487V436H25Z" />
<glyph unicode="." glyph-name="period" horiz-adv-x="512" d="M330 0H182V158H330V0Z" />
<glyph unicode="/" glyph-name="slash" horiz-adv-x="706" d="M129 -176L606 1329H725L246 -176H129Z" />
<glyph unicode="0" glyph-name="zero" horiz-adv-x="528" d="M330 524L174 451V254L330 330V524Z" />
<glyph unicode="1" glyph-name="one" horiz-adv-x="507" d="M309 1296V104L199 0V1296H309Z" />
<glyph unicode="2" glyph-name="two" horiz-adv-x="1118" d="M199 0V973Q199 1133 299 1218T561 1303Q695 1303 790 1237T920 1055H797Q765 1120 704 1159T565 1198Q457 1198 383 1136T309 965V0H199Z" />
<glyph unicode="3" glyph-name="three" horiz-adv-x="1423" d="M799 1296V1012Q799 986 795 956Q858 864 954 864Q1038 864 1076 915T1114 1079V1296H1225V1042Q1225 969 1201 912T1137 821T1052 773T961 760Q835 772 768 872Q733 800 665 762T530 729Q373 741
309 897V0H199V1296H309V1126Q309 1007 377 919T522 831Q613 831 650 882T688 1049V1296H799Z" />
<glyph unicode="4" glyph-name="four" horiz-adv-x="1103" d="M903 74L852 170Q769 104 637 104Q500 104 409 173T317 373Q317 451 352 510T447 603T571 652T707 668H725V764H702Q644 764 591 775T488 812T409 884T379 997Q379 1098 448 1151T618 1204Q698 1204
772 1174L805 1260Q697 1298 596 1298Q527 1298 469 1280T364 1226T291 1129T264 991Q264 936 285 887T341 806T410 752T479 721Q359 695 279 601T199 371Q199 255 259 170T416 42T635 0Q790 0 903 74Z" />
<glyph unicode="5" glyph-name="five" horiz-adv-x="1241" d="M621 88Q599 88 572 91T503 108T422 141T342 199T270 286T221 410T201 575V598Q204 704 246 799T351 956T485 1054T621 1090Q684 1090 755 1054T889 956T994 799T1040 598V578Q1040 488 1020 413T969
288T897 200T815 142T734 108T666 92T621 88ZM621 190Q698 190 759 224T857 314T913 433T932 559V578Q928 673 895 753T815 884T717 961T621 989Q575 989 523 962T424 884T345 754T309 578V559Q309 510 320 460T357 360T418 274T506 213T621 190Z" />
<glyph unicode="6" glyph-name="six" horiz-adv-x="1085" d="M520 1194H264L199 1296H522Q683 1296 784 1212T885 967V0H774V958Q774 1067 701 1130T520 1194Z" />
<glyph unicode="7" glyph-name="seven" horiz-adv-x="1302" d="M199 1296H319L659 154L981 1296H1104L721 0H596L199 1296Z" />
<glyph unicode="8" glyph-name="eight" horiz-adv-x="1302" d="M199 0H319L659 1143L981 0H1104L721 1296H596L199 0Z" />
<glyph unicode="9" glyph-name="nine" horiz-adv-x="1120" d="M535 641Q604 641 655 665T735 726T782 819T805 927T811 1047V1077V1194H702Q662 1194 631 1192T559 1184T487 1165T424 1131T370 1078T333 1002T315 899V889Q315 863 321 833T343 768T382 706T446
660T535 641ZM811 0V719Q808 712 802 700T771 658T716 604T633 562T518 543Q392 543 297 641T201 885V893Q203 992 226 1061T294 1177T414 1249T583 1285T811 1296H922V0H811Z" />
<glyph unicode=":" glyph-name="colon" horiz-adv-x="512" d="M182 860H330V702H182V860ZM182 158H330V0H182V158Z" />
<glyph unicode="&lt;" glyph-name="less" horiz-adv-x="839" d="M731 -84L252 393L731 872H590L111 393L590 -84H731Z" />
<glyph unicode="=" glyph-name="equal" horiz-adv-x="1214" d="M1067 696V586H147V696H1067ZM1067 338V227H147V338H1067Z" />
<glyph unicode="&gt;" glyph-name="greater" horiz-adv-x="839" d="M109 -84L588 393L109 872H250L729 393L250 -84H109Z" />
<glyph unicode="[" glyph-name="bracketleft" horiz-adv-x="512" d="M410 -176H156V1329H410V1237H276V-84H410V-176Z" />
<glyph unicode="\" glyph-name="backslash" horiz-adv-x="512" d="M475 0L-82 1329H39L594 0H475Z" />
<glyph unicode="]" glyph-name="bracketright" horiz-adv-x="512" d="M102 1329H356V-176H102V-84H236V1237H102V1329Z" />
<glyph unicode="_" glyph-name="underscore" horiz-adv-x="919" d="M920 -227H0V-125H920V-227Z" />
<glyph unicode="{" glyph-name="braceleft" horiz-adv-x="608" d="M496 -334V-279L432 -268Q299 -250 299 -92V309Q299 436 203 465L131 481L207 502Q299 526 299 651V1057Q299 1218 432 1233L496 1245V1298H397Q302 1298 243 1228T184 1028V664Q184 556 96 535L31
518V449L96 432Q184 411 184 299V-63Q184 -194 250 -266Q306 -334 397 -334H496Z" />
<glyph unicode="|" glyph-name="bar" horiz-adv-x="266" d="M90 -332H199V1266H90V-332Z" />
<glyph unicode="}" glyph-name="braceright" horiz-adv-x="620" d="M508 449V518L440 535Q352 556 352 664V1028Q352 1158 293 1229T137 1300H43V1245L106 1233Q238 1218 238 1057V655Q238 526 334 502L403 481L328 463Q238 438 238 317V-90Q238 -250 106 -268L43
-279V-334H137Q232 -334 292 -262T352 -63V299Q352 411 440 432L508 449Z" />
</font>
</defs>
</svg>
